<?xml version="1.0" encoding="UTF-8" standalone="no"?>
<!-- Created with Inkscape (http://www.inkscape.org/) -->

<svg
   version="1.1"
   id="svg1"
   width="883"
   height="883"
   viewBox="0 0 883 883"
   xmlns="http://www.w3.org/2000/svg"
   xmlns:svg="http://www.w3.org/2000/svg">
  <defs
     id="defs1" />
  <g
     id="g1">
    <path
       style="fill:#000000"
       d="m 596.84119,621.01043 c -59.38653,-4.90745 -120.93483,-21.51529 -178,-48.0305 -14.63294,-6.79917 -28.50814,-14.11968 -37.26095,-19.65875 l -4.76096,-3.01289 -11.73904,5.03271 C 315.14135,576.75058 258.06451,593.80405 213.84119,600.52837 141.16661,611.5788 71.839855,598.34713 37.931994,566.95443 18.33235,548.80862 10.169419,527.29663 12.857136,500.87399 15.089558,478.92729 22.691821,460.44812 38.254101,439.14043 50.451232,422.44027 61.929725,410.28429 80.841185,394.03979 153.22754,331.86159 269.4082,283.15182 386.079,266.06615 c 26.48669,-3.8788 36.27134,-4.70536 62.26219,-5.2596 22.97449,-0.48992 26.98354,-0.2714 52,2.83438 25.06966,3.11238 48.58859,12.10404 64.88125,24.80513 11.2869,8.7988 22.23763,24.81972 24.15864,35.3441 0.77973,4.27177 -0.44022,3.82661 16.96011,6.18878 29.37587,3.98791 71.35505,13.70553 102.1136,23.63794 13.82033,4.4628 41.66583,14.96101 47.05699,17.74126 1.00617,0.5189 7.67941,3.73094 14.82941,7.13788 23.8661,11.37209 44.39574,24.75003 59.36456,38.68434 26.34412,24.52343 39.23532,49.4312 40.80965,78.85048 1.2702,23.73607 -7.05838,43.62491 -26.34433,62.91086 -14.7126,14.7126 -34.26191,26.37355 -63.80091,38.05654 -50.01634,19.78199 -121.51577,29.13669 -183.52897,24.01219 z m 95,-11.87273 c 22.58761,-3.35111 35.08588,-5.89973 52.98776,-10.80515 70.94286,-19.43958 112.12554,-51.26819 117.4873,-90.80171 0.58665,-4.32549 0.4539,-4.1758 -3.42298,3.85985 -7.88969,16.35303 -19.10007,28.79023 -37.00232,41.05172 -32.79871,22.46426 -92.47529,40.16543 -152.04976,45.10073 -16.99724,1.40809 -56.13002,1.40087 -74.5,-0.0137 -60.65115,-4.67057 -125.19286,-22.44564 -178.7316,-49.2235 l -17.84029,-8.92297 -4.57259,2.67971 c -3.8391,2.24987 -4.35466,2.89464 -3.21405,4.01957 2.39106,2.35821 35.9858,19.1999 50.92071,25.52755 50.51893,21.40392 101.53309,34.58495 152.43782,39.38688 10.48807,0.98935 24.77586,1.31306 47.5,1.07617 28.71369,-0.29932 34.53878,-0.64127 50,-2.93511 z m -4,-16.45347 c 62.61808,-8.44721 113.37409,-26.51829 143.31884,-51.02699 12.30321,-10.06973 23.19814,-25.48166 27.59908,-39.04156 8.67837,-26.73919 -11.02253,-65.2701 -47.27845,-92.46692 -31.86288,-23.90145 -83.48969,-46.59466 -136.63947,-60.0616 -19.04258,-4.82495 -46.65067,-10.4002 -66.77341,-13.48439 -7.01814,-1.07566 -13.54018,-2.25504 -14.49342,-2.62083 -1.49071,-0.57204 -1.73317,-0.0162 -1.73317,3.9733 0,2.86223 0.47865,4.7689 1.25,4.97925 0.6875,0.18748 7.775,1.09505 15.75,2.01683 42.3559,4.89564 90.80593,18.76608 137,39.22084 29.78533,13.18896 52.08977,27.20713 66.5,41.79475 7.99118,8.08956 15.5,19.24059 15.5,23.01843 0,1.20404 -1.49242,-0.5778 -3.75,-4.47725 -2.19816,-3.79681 -7.88824,-10.64237 -13.75,-16.54221 -15.14309,-15.24147 -36.74767,-28.78121 -67,-41.98937 -51.37436,-22.43004 -97.15007,-35.28912 -145.61341,-40.90498 l -5.61342,-0.65047 -0.66975,4.18839 c -0.36836,2.30362 -0.53368,4.32446 -0.36738,4.49077 0.16631,0.1663 7.94373,1.47732 17.28317,2.91337 40.30733,6.19773 73.01965,15.03349 109.48079,29.57131 55.20748,22.01238 82.82928,43.68148 88.99003,69.81203 1.39448,5.91462 0.91129,16.78648 -0.87765,19.74735 -0.95074,1.57355 -1.01626,1.38882 -0.39489,-1.11344 1.31414,-5.29212 0.73045,-16.79114 -1.13307,-22.32227 -2.72754,-8.0956 -10.88336,-19.48071 -18.89433,-26.37554 -10.36662,-8.92229 -21.23991,-15.68 -40.30256,-25.04792 -41.99899,-20.63949 -88.22464,-35.22681 -133.88753,-42.2506 -9.35,-1.43821 -17.9,-2.82889 -19,-3.0904 -1.75693,-0.4177 -2.39477,0.76414 -5.24817,9.72412 -1.78649,5.60979 -3.03388,10.41389 -2.77198,10.67579 0.2619,0.2619 2.73607,0.69333 5.49816,0.95873 2.7621,0.2654 5.02199,0.89569 5.02199,1.40063 0,0.94905 -5.76559,0.19125 -9.72481,-1.27817 -2.01469,-0.74773 -2.55701,-0.1514 -5.7423,6.31432 -1.93463,3.92702 -3.39562,7.26191 -3.24666,7.41087 0.14896,0.14897 2.14864,0.69276 4.44372,1.20843 4.02367,0.90406 4.25371,0.81962 6.43331,-2.3613 1.2459,-1.81827 3.62402,-3.6874 5.29858,-4.16451 2.59399,-0.73908 3.08353,-1.40923 3.34853,-4.58391 0.1707,-2.04505 0.8457,-3.75636 1.5,-3.80292 0.65429,-0.0465 2.68101,-1.82074 4.50382,-3.94264 l 3.31419,-3.858 -3.81419,-0.65547 c -7.74751,-1.33142 -10.09007,-2.455 -3.81419,-1.82944 3.3,0.32894 10.95853,0.54018 17.01895,0.46942 12.78009,-0.14921 19.36692,1.43886 24.14917,5.82233 3.80081,3.48387 4.85129,5.37474 5.74941,10.34893 0.44379,2.45792 1.86286,4.84615 4.07643,6.86045 1.86761,1.69948 3.67619,4.36726 4.01907,5.9284 0.53304,2.42689 1.43853,3.07538 6.24547,4.47279 6.16184,1.7913 17.47083,7.21932 23.7415,11.3953 2.2,1.4651 8.05,4.1602 13,5.9891 14.28374,5.2775 29.48136,13.47009 36.10227,19.46168 8.39704,7.59887 11.86549,14.2493 11.88359,22.78566 0.0123,5.81738 -0.37182,7.21465 -3.02435,11 -3.93415,5.61431 -14.70626,12.9908 -24.34699,16.67225 -23.22864,8.87017 -61.01106,13.50699 -91.06851,11.17629 -8.55031,-0.663 -17.57101,-1.58456 -20.04601,-2.0479 l -4.5,-0.84244 4.5,0.43129 c 2.475,0.23721 15.3,0.71143 28.5,1.05382 26.87433,0.69708 43.11096,-0.62108 61.67216,-5.00681 18.40896,-4.34977 29.18036,-9.21191 37.66569,-17.00205 14.29539,-13.12418 9.08285,-29.34141 -13.8074,-42.95752 -7.31916,-4.35375 -30.99405,-15.01052 -31.72446,-14.28012 -0.1837,0.1837 0.61711,1.54314 1.77957,3.02097 1.16246,1.47783 2.73781,5.03403 3.50078,7.90266 1.19396,4.48906 1.18523,5.91603 -0.0626,10.24255 -3.0282,10.49927 -12.36247,17.32823 -30.07094,21.99993 -19.86212,5.23986 -52.34499,4.39573 -76.42412,-1.98602 -16.29283,-4.31813 -31.79557,-9.73066 -40.45285,-14.12344 -6.88279,-3.49238 -6.93593,-3.50164 -8.88894,-1.54863 -1.09986,1.09986 -1.70325,2.64624 -1.3707,3.51286 0.65223,1.69969 11.76302,7.57859 21.18383,11.20871 3.3,1.27159 5.4849,2.33398 4.85534,2.36086 -2.39702,0.10236 -15.17417,-4.2421 -22.64926,-7.70115 l -7.79392,-3.60658 -2.16719,2.1672 c -1.37216,1.37216 -1.81461,2.50802 -1.20608,3.09628 0.52861,0.51101 5.91111,3.4386 11.96111,6.50576 6.05,3.06716 10.52363,5.57907 9.9414,5.58201 -1.36311,0.007 -15.48153,-5.18428 -21.86458,-8.03935 -4.74645,-2.12304 -4.9713,-2.13629 -6.26348,-0.36913 -0.73716,1.00813 -1.19796,2.30116 -1.024,2.8734 0.17396,0.57224 3.89253,2.9375 8.26348,5.25613 9.65356,5.12087 7.98453,5.48932 -3.55282,0.78431 -9.92174,-4.04615 -10.16636,-4.07865 -12.37024,-1.64338 -1.33654,1.47686 -1.41938,2.05872 -0.40499,2.84471 3.00342,2.32715 27.08046,12.89222 36.26876,15.91483 5.50356,1.81046 9.33147,3.30461 8.50647,3.32034 -4.22011,0.0804 -35.56951,-10.69883 -45.14116,-15.52146 -4.51448,-2.2746 -4.69872,-2.2885 -6.75,-0.50944 -1.15986,1.00595 -2.10884,2.07094 -2.10884,2.36666 0,0.5045 11.85997,7.60702 18.5,11.079 1.65,0.86277 2.44777,1.58668 1.77283,1.6087 -1.78248,0.0582 -12.97761,-4.26993 -19.19791,-7.42199 l -5.35423,-2.7132 -2.55732,2.55731 c -1.40652,1.40652 -2.35617,2.74955 -2.11034,2.98452 0.24583,0.23496 5.84697,3.11681 12.44697,6.40412 13.95129,6.94881 26.04782,11.75205 39.8036,15.80503 5.39198,1.58868 9.33231,3.04561 8.75628,3.23762 -3.13098,1.04366 -40.32417,-11.3386 -56.59916,-18.84286 -8.93947,-4.12191 -8.96843,-4.12759 -12.21072,-2.39364 -1.7875,0.95594 -3.25,2.01875 -3.25,2.3618 0,0.65852 13.39724,7.98651 26,14.22143 4.125,2.04074 7.14554,3.73957 6.7123,3.77517 -1.51721,0.12468 -19.19479,-7.05259 -27.03216,-10.97532 -4.35145,-2.17797 -8.42212,-3.94377 -9.04594,-3.92399 -0.62381,0.0198 -2.41205,1.08136 -3.97386,2.35906 l -2.83966,2.32309 4.83966,2.97535 c 2.66181,1.63644 8.81338,4.88865 13.67014,7.22713 4.85677,2.33848 8.62545,4.45681 8.37485,4.70741 -0.60554,0.60555 -19.85533,-6.65529 -26.28602,-9.91483 -4.95627,-2.5122 -5.14702,-2.53177 -7.78875,-0.79882 -3.30882,2.17056 -3.47606,2.01925 10.36944,9.38126 11.94369,6.35077 26.93996,12.4228 51.5,20.85247 19.45567,6.67771 16.93967,6.77376 -4.45106,0.16991 -17.91982,-5.53229 -41.7157,-14.80814 -53.33982,-20.79236 -4.835,-2.48909 -9.49054,-4.52563 -10.34565,-4.52563 -0.85511,0 -2.90591,0.96211 -4.55733,2.13802 l -3.00257,2.13803 8.3482,4.87448 c 4.59152,2.68096 14.31071,7.80856 21.59821,11.39467 20.57645,10.12546 17.13349,9.38984 -10.25,-2.19003 -7.15,-3.02358 -15.14426,-6.81541 -17.76502,-8.42629 -2.62077,-1.61088 -5.1718,-2.92888 -5.66896,-2.92888 -1.1663,0 -7.05585,3.34375 -7.04545,4 0.004,0.275 6.04494,3.64407 13.42351,7.48683 7.37858,3.84276 13.28439,7.11803 13.12404,7.27838 -0.52052,0.52053 -14.50445,-4.8128 -21.85308,-8.33454 -7.8855,-3.77902 -10.2327,-4.1094 -13.21017,-1.85938 -2.37771,1.79679 -3.00599,1.29092 10.99513,8.85286 21.91854,11.83811 52.32377,23.16904 82.22932,30.64389 7.27613,1.81866 13.04237,3.4936 12.81387,3.72211 -0.77143,0.77143 -25.77276,-4.89168 -41.4622,-9.39169 -19.59439,-5.62003 -39.75736,-13.59292 -56.87418,-22.48935 -7.31125,-3.80001 -14.07362,-6.90911 -15.02749,-6.90911 -1.93135,0 -6.17932,2.67843 -6.17932,3.89619 0,0.43053 1.2375,1.33483 2.75,2.00956 1.5125,0.67473 9.725,4.98772 18.25,9.58443 25.03707,13.50008 45.80799,21.67601 72.5,28.53773 16.87714,4.33862 17.47127,5.33988 0.83866,1.41337 -24.61967,-5.81204 -56.25182,-17.46907 -82.53112,-30.41424 -8.96239,-4.41487 -16.74803,-8.01716 -17.3014,-8.00508 -0.55338,0.0121 -3.02164,0.93619 -5.48503,2.05359 l -4.47889,2.03162 6.97889,4.09308 c 19.1962,11.25844 50.40784,24.41555 77.47889,32.66083 37.04792,11.28403 68.17497,17.41967 104.74769,20.64747 22.91273,2.0222 75.79334,1.26987 95.25231,-1.35516 z m -77.97243,-17.21521 c -22.14297,-1.48171 -55.21301,-6.08608 -53.80742,-7.49166 0.25087,-0.25088 2.89147,0.01 5.86799,0.57895 11.01661,2.10706 38.05112,4.86402 59.51794,6.06959 58.65467,3.29401 119.20492,-5.96841 161.799,-24.75052 5.4478,-2.40224 10.06513,-4.20766 10.26074,-4.01205 0.62687,0.62687 -18.86075,9.37732 -28.04872,12.59461 -16.26129,5.69411 -47.02892,12.56635 -67.1171,14.99124 -25.23684,3.04638 -60.94765,3.86167 -88.47243,2.01984 z m -81.21507,-1.62129 c 0.72187,-0.28887 1.58438,-0.25335 1.91667,0.0789 0.33229,0.33229 -0.25834,0.56864 -1.3125,0.52522 -1.16495,-0.048 -1.4019,-0.28494 -0.60417,-0.60416 z m 107.1875,-21.37448 c -20.8721,-1.37734 -42.09763,-4.5038 -64.80422,-9.54549 -12.11282,-2.68949 -7.30598,-2.7169 5.95526,-0.034 33.04227,6.68492 51.71813,8.61525 83.47015,8.62741 15.89773,0.006 30.40049,-0.5592 39.5,-1.53964 23.74462,-2.55841 54.50514,-9.50378 68.32174,-15.42627 2.66208,-1.1411 5.03197,-1.88289 5.26643,-1.64843 0.78806,0.78806 -16.02709,6.78398 -27.16861,9.68773 -35.89298,9.3546 -70.97383,12.48965 -110.54075,9.87865 z m 175.3988,-16.16414 c 10.16527,-7.98925 16.41592,-14.05738 21.69004,-21.05666 8.98678,-11.92636 13.07959,-20.8964 16.29887,-35.72161 1.11211,-5.12139 1.42963,-5.75767 1.4971,-3 0.27768,11.35006 -8.09106,30.41629 -18.54215,42.24395 -6.64664,7.52212 -17.22762,16.69875 -21.65988,18.78511 -1.4754,0.6945 -1.24336,0.28916 0.71602,-1.25079 z m -158.3988,-0.45417 c 19.83063,-0.42833 46.02343,-2.41796 58.5,-4.44372 9.48933,-1.54074 31.45554,-6.61549 41.5,-9.58755 1.20033,-0.35517 1.18298,-0.23729 -0.0869,0.59007 -2.78539,1.81478 -27.97607,7.9975 -40.91312,10.04158 -17.98932,2.84235 -35.7652,4.10645 -54.30447,3.86176 -13.0016,-0.1716 -13.9276,-0.26274 -4.69551,-0.46214 z m -21.25,-1.0475 c 1.7875,-0.22182 4.7125,-0.22182 6.5,0 1.7875,0.22183 0.325,0.40333 -3.25,0.40333 -3.575,0 -5.0375,-0.1815 -3.25,-0.40333 z m -11.48625,-0.99418 c 1.52006,-0.22986 3.77006,-0.22371 5,0.0136 1.22994,0.23736 -0.0137,0.42542 -2.76375,0.41792 -2.75,-0.008 -3.75631,-0.20172 -2.23625,-0.43157 z m 176.50662,-12.86591 c 11.43799,-7.82528 23.88998,-21.17179 28.46808,-30.51315 4.10325,-8.37248 6.76155,-17.72852 6.76155,-23.7977 0,-2.25812 0.45,-4.10566 1,-4.10566 1.42958,0 1.20406,7.37315 -0.46666,15.25727 -2.37602,11.21244 -7.63804,19.9426 -18.52991,30.74273 -5.78305,5.73434 -12.44438,11.18464 -16.80522,13.75 -9.97219,5.86638 -10.1485,5.31688 -0.42784,-1.33349 z m -254.27037,1.58349 c -2.54822,-1.09501 0.0808,-1.09501 3.5,0 2.00973,0.64363 2.10779,0.8064 0.5,0.83003 -1.1,0.0162 -2.9,-0.35734 -4,-0.83003 z m 86.5,-4.68378 c -19.02977,-0.72666 -51.96014,-5.14854 -54.30641,-7.29225 -0.44353,-0.40524 2.25647,-0.15962 6,0.54581 33.35389,6.28521 77.89407,7.51913 109.80641,3.04203 13.00342,-1.8243 27.30216,-4.74944 36.93449,-7.55581 3.81397,-1.11119 7.11307,-1.84177 7.33134,-1.6235 0.56934,0.56934 -15.12733,5.25306 -23.32154,6.95891 -25.09582,5.22437 -51.35944,7.11179 -82.44429,5.92481 z m 144,-4.70424 c 0,-0.25211 3.05147,-2.487 6.78104,-4.96642 6.04027,-4.01556 14.07499,-11.42757 20.21205,-18.64556 l 2.12561,-2.5 -1.73415,3 c -2.68112,4.63821 -11.29787,13.28223 -17.38455,17.43957 -6.07436,4.14892 -10,6.37571 -10,5.67241 z m -25,-13.03109 c 0,-0.30464 3.33647,-2.13718 7.41438,-4.07231 19.359,-9.18665 28.84725,-23.49621 25.696,-38.75306 -4.74642,-22.97989 -27.6167,-41.60243 -75.61295,-61.56923 -14.67641,-6.1055 -35.28278,-13.14903 -49.99743,-17.08978 -6.05,-1.62026 -10.325,-2.97923 -9.5,-3.01992 2.99915,-0.14795 21.81084,4.91003 34.54683,9.28876 59.86754,20.58292 92.44165,42.06004 100.49462,66.2592 2.92044,8.77594 2.42222,18.61442 -1.31421,25.95192 -3.3624,6.60297 -12.66544,15.14583 -20.78231,19.08411 -6.95087,3.37254 -10.94493,4.80315 -10.94493,3.92031 z m -151.73097,-5.27388 c 0.97297,-0.25354 2.32297,-0.23687 3,0.0371 0.67703,0.27393 -0.11903,0.48137 -1.76903,0.46099 -1.65,-0.0204 -2.20394,-0.2445 -1.23097,-0.49804 z m 139.73097,-69.39786 c -12.3151,-8.45826 -35.37575,-20.38062 -51.24665,-26.49452 -5.36065,-2.06507 -9.55708,-3.94424 -9.32538,-4.17593 0.75103,-0.75103 23.73175,8.84996 36.65141,15.31239 12.10775,6.05631 32.198,18.66835 34.87415,21.89291 1.87024,2.25351 1.65675,2.12614 -10.95353,-6.53485 z M 193.1691,593.45148 c 49.2586,-4.36802 117.51952,-23.85686 174.67209,-49.86977 46.9676,-21.37724 104.25403,-56.7641 139,-85.8628 10.12024,-8.47539 27.78844,-25.7778 36.44257,-35.68807 16.46976,-18.86034 32.34774,-47.07424 37.0744,-65.87822 4.38708,-17.45309 2.84803,-34.74691 -4.06714,-45.70126 -3.11028,-4.927 -4.73622,-5.8502 -3.00468,-1.70604 2.1285,5.09423 2.88545,18.26541 1.58819,27.63533 -4.7806,34.52963 -28.08809,71.11798 -67.03334,105.22964 -20.73718,18.16344 -49.55362,38.38822 -80.5,56.49883 -14.51173,8.49263 -48.72555,26.26245 -61,31.6819 -53.2069,23.49206 -107.63248,39.71688 -158.2543,47.17722 -27.60705,4.06856 -70.20842,4.58573 -91.67495,1.11293 C 83.150445,572.7002 54.44749,560.8299 38.34118,545.7945 31.402169,539.31686 24.304117,528.72002 21.876387,521.21384 c -1.939604,-5.99697 -2.294577,-3.61302 -0.569562,3.8251 5.018189,21.638 23.483336,41.04624 50.41041,52.98506 18.26569,8.09857 40.003465,13.38729 65.123955,15.84442 8.54364,0.83568 45.26736,0.56385 56.32791,-0.41694 z m -7.21801,-17.44206 c 97.54507,-9.64299 200.14612,-49.52915 286.8901,-111.52852 45.46276,-32.49404 76.00441,-66.45745 91.4648,-101.71214 9.94065,-22.66791 11.1678,-47.9509 3.00354,-61.88215 -7.01294,-11.96669 -27.01848,-22.68282 -52.75556,-28.25897 -36.90189,-7.99511 -82.34094,-7.67277 -140.21278,0.99464 -23.57496,3.5308 -68.04619,14.23527 -96.5,23.22809 -53.38847,16.8734 -110.49206,43.746 -153.21913,72.10399 -7.85448,5.21303 -17.43087,11.97521 -21.28087,15.02708 -3.850005,3.05187 -9.697205,7.68648 -12.993775,10.29913 -3.29657,2.61265 -12.52819,11.27527 -20.51469,19.25027 -29.594247,29.5516 -44.484864,54.05912 -48.11937,79.19663 -2.993273,20.70251 5.856463,41.11728 24.127825,55.65859 17.100775,13.6097 49.020055,24.71473 80.6165,28.04726 13.2374,1.39617 43.24504,1.18237 59.49341,-0.4239 z M 146.37688,569.4293 C 105.1165,566.18978 71.440115,553.53107 52.298355,534.06587 40.12635,521.68818 34.418164,508.72191 33.385079,491.10393 c -0.511447,-8.72209 -0.117166,-7.43615 2.583764,8.42691 2.125741,12.48486 11.237397,27.79518 21.872342,36.75208 19.36678,16.311 47.761285,26.5604 85.154625,30.73779 7.33996,0.81998 18.03288,1.49521 23.76205,1.5005 5.72916,0.005 10.22916,0.17556 10,0.37837 -1.08305,0.95846 -20.58862,1.29856 -30.38098,0.52972 z m 12.46431,-11.49098 c -20.78016,-2.50939 -30.23018,-4.06396 -39.88783,-6.56172 -39.311415,-10.16714 -65.07369,-29.7452 -71.619404,-54.42721 -1.987444,-7.49409 -1.990129,-20.15269 -0.0059,-27.91855 7.280364,-28.49415 41.473699,-66.3803 87.945814,-97.44379 67.94322,-45.41549 149.91154,-76.14096 242.71177,-90.97946 26.74502,-4.27646 41.48385,-5.46843 67.85557,-5.48767 32.6914,-0.0238 49.548,2.64657 65.5,10.37651 13.08009,6.33829 20.35492,13.92723 24.73339,25.80133 3.25599,8.83003 2.94929,26.59906 -0.6679,38.69585 -2.84329,9.50868 -8.50326,21.26595 -11.57625,24.04697 -1.17191,1.06056 -0.40137,-1.19817 2.10421,-6.16822 7.80048,-15.47299 11.90808,-34.55105 9.98287,-46.36621 -4.08069,-25.04351 -20.28358,-36.98196 -58.57632,-43.15962 -11.94083,-1.92637 -53.382,-1.61137 -72,0.54729 -49.98024,5.79495 -97.65649,17.05871 -151.5,35.79267 -53.66966,18.67347 -112.08315,51.62475 -150.52275,84.91049 -38.170465,33.05269 -57.15177,63.32808 -55.019727,87.75704 2.712499,31.07983 30.868392,52.7051 81.594407,62.66899 73.66745,14.47017 156.16239,-0.43091 246.94805,-44.60628 86.69005,-42.18249 146.11674,-92.27524 170.10345,-143.38589 5.23885,-11.16289 7.87543,-21.3209 8.56538,-33 0.69399,-11.7476 -0.47566,-18.49243 -4.68217,-27 -2.80285,-5.66871 -2.82971,-5.83436 -0.48635,-3 6.66594,8.06265 9.15879,26.9894 5.73072,43.51003 -4.67894,22.54885 -16.00207,41.42064 -41.15871,68.59748 -19.90091,21.49905 -37.73427,36.18076 -69.07232,56.86533 -62.44115,41.21405 -134.89838,71.95109 -196.69179,83.4385 -24.44146,4.54368 -40.45672,6.18938 -63.80821,6.55685 -12.65,0.19907 -24.575,0.17175 -26.5,-0.0607 z m -8,-15.97732 c -17.34868,-2.01942 -41,-8.68408 -41,-11.5533 0,-1.24231 1.11229,-1.11964 9.26838,1.02222 28.10059,7.37946 38.1031,8.58524 70.73162,8.52658 26.14666,-0.047 29.88436,-0.27687 45.26519,-2.7838 33.37616,-5.43998 65.66447,-14.96193 98.23481,-28.96983 21.77364,-9.36444 55.16716,-25.68798 71,-34.70648 22.57086,-12.85652 41.60678,-25.20105 60.12217,-38.9884 19.76297,-14.71636 32.19847,-26.85379 49.12783,-47.95027 6.63369,-8.26655 4.98669,-4.50075 -2.17517,4.97346 -18.35374,24.27959 -47.42624,48.07133 -90.07483,73.71357 -36.28754,21.81768 -71.13478,38.76327 -109.89329,53.43915 -51.18593,19.38151 -114.83006,28.6056 -160.60671,23.2771 z m 18.80909,-13.61674 c -13.47187,-0.79117 -27.47432,-3.02451 -36.80909,-5.87091 -15.52724,-4.73463 -13.92427,-7.34622 2.17428,-3.54237 58.52272,13.82805 116.5523,6.95914 191.82572,-22.70625 18.2622,-7.19717 58.67255,-27.14525 78.5,-38.75058 36.9424,-21.623 69.14446,-46.70501 85.20127,-66.3628 8.02463,-9.82428 8.87446,-10.72326 7.36444,-7.79031 -1.47624,2.86734 -11.99851,15.23561 -18.04417,21.2098 -35.06178,34.64731 -107.41294,77.01235 -170.52154,99.84847 -51.01579,18.46027 -97.53371,26.44075 -139.69091,23.96495 z M 85.141225,515.23709 c -12.07952,-8.21605 -20.92782,-20.55243 -23.22737,-32.38379 -1.6443,-8.46006 -2.22818,-15.98399 -1.11146,-14.32246 0.55449,0.825 1.02039,3.075 1.03534,5 0.11119,14.31694 11.96015,32.93451 27.36831,43.0022 3.36515,2.19879 5.5784,3.9978 4.91834,3.9978 -0.66006,0 -4.70249,-2.38219 -8.98316,-5.29375 z m 87.199965,0.60648 c -12.11031,-1.5647 -39.1783,-7.96777 -38.12694,-9.01912 0.22299,-0.22299 7.54277,0.95255 16.26619,2.61232 21.84915,4.15714 30.34177,5.07419 48.33452,5.21924 11.1817,0.0901 14.26705,0.34922 11.02623,0.92587 -4.50295,0.80124 -31.84716,0.99205 -37.5,0.26169 z m -71.45816,-7.92819 c -18.966195,-9.48839 -29.461075,-28.90981 -25.608025,-47.38916 3.1157,-14.943 12.05486,-28.48871 32.053395,-48.57124 19.02893,-19.10887 36.3514,-32.46321 63.51279,-48.96366 15.24007,-9.25829 44.26146,-23.60829 60.72406,-30.02579 10.21138,-3.98063 15.424,-6.5253 15.83128,-7.72844 0.98221,-2.90154 10.43786,-8.50645 17.3031,-10.25655 4.28368,-1.092 8.19928,-1.41626 12,-0.99373 4.8106,0.5348 7.57636,0.0408 18.77742,-3.3539 30.87316,-9.35672 71.64626,-18.50434 98.36414,-22.06842 42.7324,-5.70037 78.43384,-2.42078 100.30263,9.21396 6.22747,3.31317 14.61802,11.71637 17.66781,17.69444 5.2238,10.23951 6.07596,23.00266 2.40309,35.99229 -1.70152,6.01769 -8.70079,20.53185 -10.41089,21.58875 -0.6001,0.37088 0.28445,-2.05059 1.96566,-5.38105 6.22067,-12.32307 8.43051,-20.67527 8.50421,-32.14204 0.063,-9.8048 -0.14393,-10.9463 -3.12564,-17.24075 -10.38298,-21.91862 -39.56795,-32.15834 -86.7092,-30.42243 -32.57357,1.19948 -78.15531,9.60767 -122.59767,22.61487 -5.225,1.52923 -11.44262,3.31778 -13.81694,3.97456 l -4.31694,1.19414 4.11374,2.97998 c 2.26256,1.63899 4.37534,3.6617 4.69508,4.49491 0.31973,0.83322 2.58418,2.45638 5.0321,3.60704 2.44792,1.15066 5.40196,3.37867 6.56453,4.95113 1.51136,2.04422 2.66067,2.68544 4.03276,2.24996 1.05545,-0.33499 9.18125,-0.98051 18.05733,-1.4345 8.87609,-0.45399 22.66334,-1.81217 30.63834,-3.01817 19.47497,-2.94508 40.39024,-3.16462 51.80687,-0.5438 20.48275,4.70206 27.06119,15.0168 20.83155,32.66304 -10.93872,30.98526 -67.19126,70.52137 -128.57161,90.36431 -19.2226,6.21426 -52.32004,13.64581 -53.87009,12.09576 -0.238,-0.23799 0.63288,-0.6235 1.93528,-0.85669 17.63532,-3.15749 31.61872,-6.23395 41.868,-9.2113 70.07828,-20.35728 132.47901,-65.07699 139.03354,-99.63891 3.25786,-17.17862 -12.59339,-25.99017 -44.03354,-24.47781 -11.02178,0.53018 -35.04419,3.44944 -43.5,5.28623 l -3,0.65167 3.90927,1.36117 c 13.12214,4.56902 19.56749,18.48561 14.62616,31.58036 -9.78792,25.93848 -49.40598,47.86901 -96.37913,53.35054 -11.54281,1.34699 -13.76332,1.34009 -21.92317,-0.0681 -19.99794,-3.45107 -28.27896,-10.75118 -29.66927,-26.15484 l -0.56386,-6.2471 -9.48451,6.69735 c -13.65144,9.63977 -24.20159,20.29726 -27.96233,28.24682 -3.37322,7.13042 -3.73501,10.4257 -1.6724,15.23265 3.40777,7.94188 13.40252,13.59329 29.79848,16.8492 8.45555,1.6791 12.94126,1.96969 24.82076,1.60795 10.34929,-0.31514 13.35498,-0.17309 10.5,0.49625 -5.66548,1.32826 -38.85832,0.20786 -45.00515,-1.51911 -12.30561,-3.45729 -21.36564,-9.76484 -23.5551,-16.39896 -3.87164,-11.73119 5.22617,-27.65407 24.16263,-42.28913 5.01855,-3.87859 11.47089,-8.45533 14.33853,-10.17055 3.02818,-1.81123 6.30768,-4.84555 7.82303,-7.23817 4.52227,-7.14032 9.7547,-12.56919 18.12521,-18.80572 4.46097,-3.32369 8.62912,-6.24767 9.26255,-6.49774 0.63344,-0.25008 1.43277,-1.95286 1.77629,-3.78396 0.34351,-1.83111 1.51588,-4.4624 2.60526,-5.84732 1.55481,-1.97662 1.776,-3.05636 1.02875,-5.02178 -0.52356,-1.37707 -0.784,-4.56461 -0.57875,-7.08342 0.20525,-2.51878 -0.0584,-4.57963 -0.58588,-4.57963 -1.94165,0 -23.46321,9.47558 -39.69276,17.47606 -56.42148,27.81339 -100.58852,63.04261 -119.508115,95.32396 -9.69897,16.54879 -10.74265,29.23567 -3.59879,43.74691 3.8606,7.84198 12.64817,16.46039 21.679035,21.26171 3.42279,1.81975 6.22326,3.50725 6.22326,3.75 0,1.00092 -2.10042,0.25669 -8.95816,-3.1741 z M 263.6306,418.47091 c 5.34083,-0.58297 12.63559,-1.7158 16.21059,-2.51741 18.16519,-4.07311 40.48587,-13.52536 52.06109,-22.04654 13.92796,-10.25319 25.61212,-25.77491 24.76694,-32.90145 -0.31358,-2.6442 -0.48028,-2.52838 -3.78515,2.62966 -15.05473,23.49656 -53.53379,42.29703 -96.00517,46.90713 -16.64026,1.80623 -28.72783,-0.24637 -37.93388,-6.44159 -5.51294,-3.70993 -6.53002,-2.89153 -2.75889,2.21996 8.16582,11.06815 22.86672,14.83296 47.44447,12.15024 z m -5.78941,-10.9989 c 19.39825,-1.77451 40.80447,-7.76516 56.91559,-15.92814 20.80206,-10.53971 39.04779,-28.77602 39.07503,-39.05482 0.0131,-4.94066 -6.32254,-10.97061 -14.6679,-13.96023 -5.36738,-1.9228 -7.74921,-2.16606 -18.16687,-1.85545 -10.7309,0.31994 -15.80438,1.36149 -12.46319,2.55859 0.65596,0.23503 1.73619,2.85613 2.40053,5.82468 1.03493,4.62456 0.96794,6.02561 -0.46788,9.78524 -2.62765,6.88042 -7.69331,11.99365 -15.83361,15.98229 -16.03794,7.8584 -37.39712,8.82853 -44.2173,2.00834 -1.409,-1.409 -3.52494,-5.20328 -4.7021,-8.43174 -1.17715,-3.22846 -2.33155,-5.86993 -2.56533,-5.86993 -0.23377,0 -3.88598,2.63924 -8.11601,5.86498 -13.63283,10.39614 -21.11294,20.12697 -21.169,27.53863 -0.0162,2.14034 1.07325,3.9147 4.14443,6.75 4.09724,3.78256 4.30055,3.84756 12.25,3.91668 8.25704,0.0718 8.3283,1.68229 0.0836,1.88983 -5.63247,0.14179 -2.59017,1.70736 5.59027,2.87675 8.94335,1.27846 9.06785,1.27905 21.90973,0.1043 z m -26,-8.43684 c 5.775,-0.69921 10.64355,-1.14267 10.819,-0.98547 0.82822,0.74205 -10.55471,2.4686 -15.61822,2.36895 -4.81213,-0.0947 -4.06401,-0.31036 4.79922,-1.38348 z m 0,-3.43522 c 2.475,-0.45889 6.2747,-1.32497 8.44377,-1.92462 2.16908,-0.59966 4.14399,-0.89007 4.38869,-0.64536 0.98178,0.98178 -5.68619,2.80241 -11.33246,3.09423 -5.75746,0.29756 -5.81809,0.27637 -1.5,-0.52425 z m 10.1347,-6.53714 c 0.82845,-0.82845 7.8653,-3.57604 7.8653,-3.07107 0,0.71051 -5.68819,3.5391 -7.11701,3.5391 -0.66898,0 -1.00571,-0.21061 -0.74829,-0.46803 z m 25.69863,-15.30994 c -0.18333,-0.42788 -1.20972,-3.12788 -2.28087,-6 -1.44034,-3.86202 -2.48208,-5.25289 -4,-5.34051 -2.15541,-0.12443 -4.88701,0.15136 -5.28962,0.53404 -0.67207,0.63882 5.454,10.58588 6.73716,10.9393 2.66713,0.7346 5.17546,0.66566 4.83333,-0.13283 z m -11.94656,-6.63042 c -2.12052,-4.8582 -4.79576,-7.34929 -6.28898,-5.85606 -0.28492,0.28491 0.1904,1.92347 1.05625,3.64123 1.77222,3.51591 6.45781,8.84471 7.15982,8.14269 0.25282,-0.25282 -0.61437,-2.92035 -1.92709,-5.92786 z m 22.43267,5.65839 c 0.24061,-0.4125 -0.69005,-3.3375 -2.06813,-6.5 -2.59367,-5.95209 -3.64282,-6.55646 -8.92302,-5.14019 -2.06618,0.5542 -2.10565,0.76978 -0.81211,4.43604 2.54546,7.2146 3.23906,7.95415 7.45999,7.95415 2.14819,0 4.10266,-0.3375 4.34327,-0.75 z m 10.71282,-3.32269 c 8.90793,-3.43526 8.96737,-3.54732 6.59127,-12.42731 -1.39215,-5.20277 -2.09917,-5.54491 -6.075,-2.93984 -2.25153,1.47526 -2.27251,1.63425 -0.8543,6.47222 0.79966,2.7279 1.27208,5.74907 1.04982,6.71372 -0.2271,0.98568 -1.18919,-0.87414 -2.19651,-4.2461 -0.98582,-3.3 -1.86776,-6.09294 -1.95985,-6.20654 -0.47471,-0.58556 -9.08769,2.55809 -9.08769,3.31692 0,1.19973 3.82883,12.38962 4.23935,12.38962 0.17884,0 3.91065,-1.38271 8.29291,-3.07269 z m 14.96774,-13.4524 c 0,-3.47861 -1.81047,-9.48804 -2.84783,-9.45267 -0.35869,0.0122 -1.67263,0.80766 -2.91985,1.76764 l -2.26769,1.7454 1.66926,6.76428 1.66925,6.76428 2.34843,-2.20623 c 1.50865,-1.41731 2.34843,-3.34211 2.34843,-5.3827 z m -28.37996,0.6411 c 13.40829,-3.48335 25.71329,-12.62119 25.71329,-19.095 0,-2.8022 -4.41223,-9.02101 -6.40038,-9.02101 -0.38108,0 -0.63439,2.37169 -0.56291,5.27042 0.15028,6.09461 -1.92504,9.4715 -8.58567,13.97032 -4.96459,3.35325 -9.24612,4.64568 -18.01466,5.43793 -7.07531,0.63927 -14.27489,-1.17259 -16.81339,-4.2313 -1.62873,-1.9625 -2.68662,-1.81983 -3.94534,0.53211 -1.4568,2.72206 -0.19621,7.00143 2.36744,8.03686 3.84232,1.55187 18.77447,1.03956 26.24162,-0.90033 z m 32.37996,-6.60993 c 0,-7.27589 -2.77237,-12.14762 -4.43992,-7.80204 -0.78958,2.05759 2.44475,13.41101 3.61453,12.68805 0.45396,-0.28057 0.82539,-2.47927 0.82539,-4.88601 z m -27.9923,-2.27996 c 6.05636,-2.61634 11.9923,-9.23762 11.9923,-13.37688 v -3.14501 l -2.28625,3.39789 c -4.58319,6.81163 -21.80235,12.91082 -32.46375,11.49896 -4.94116,-0.65435 -5.22741,-0.28761 -1.62028,2.07587 5.36177,3.51317 15.6421,3.32305 24.37798,-0.45083 z m -5.32913,-6.08092 c 10.07725,-3.48229 16.52091,-10.03543 14.17603,-14.41688 -0.94577,-1.76718 -1.11976,-1.73426 -3.30698,0.6258 -1.26978,1.37011 -4.72495,3.7471 -7.67815,5.28219 -4.6191,2.40103 -6.55733,2.79615 -13.86947,2.82738 -4.675,0.02 -9.7375,-0.30976 -11.25,-0.73274 -2.2991,-0.64296 -2.75,-0.46011 -2.75,1.11514 0,1.03631 0.93266,3.06988 2.07258,4.51905 1.92254,2.44412 2.62835,2.6325 9.75,2.60221 4.7002,-0.02 9.68561,-0.72659 12.85599,-1.82215 z m -0.40858,-10.34397 c 5.69631,-2.03373 11.18798,-6.85102 10.46183,-9.17712 -0.70286,-2.25148 -7.24297,-4.62099 -12.73182,-4.61279 -6.55678,0.01 -14.59895,3.39207 -17.82886,7.49825 -2.5593,3.25361 -2.71685,4.79264 -0.66498,6.49555 3.95693,3.28395 11.19369,3.21289 20.76383,-0.20389 z m -90.26999,173.52455 c -12.59922,-1.27485 -29.81299,-5.02298 -38.85225,-8.4597 -4.97094,-1.88995 -1.12852,-1.86661 7.46787,0.0454 20.74201,4.61335 31.37317,5.60818 58.88438,5.51019 25.25955,-0.09 39.05147,-1.64179 62.20691,-6.9993 27.36554,-6.33161 57.68268,-17.19429 82.79309,-29.66491 6.6,-3.27777 11.55,-5.49712 11,-4.93189 -1.69755,1.74456 -24.4013,12.75937 -36.12512,17.52624 -24.90382,10.12581 -54.32662,18.70296 -77.53019,22.6011 -24.14404,4.05614 -54.30986,5.94479 -69.84469,4.3729 z m -3.5,-11.33816 c -7.78214,-0.82359 -18.86021,-2.96074 -18.29209,-3.52887 0.20159,-0.20158 5.97478,0.28121 12.82931,1.07287 6.85453,0.79166 18.76278,1.83062 26.46278,2.30879 l 14,0.8694 -14,0.009 c -7.7,0.005 -17.15,-0.32405 -21,-0.7315 z m -54.01787,-8.62488 c -6.34432,-4.20167 -10.4615,-8.48769 -13.31662,-13.86274 -2.34781,-4.41998 -2.65192,-6.10203 -2.62156,-14.5 0.027,-7.46999 0.5187,-10.71956 2.30105,-15.20726 8.3918,-21.12933 33.50367,-45.44847 74.79802,-72.43683 12.75771,-8.33794 46.35772,-26.40458 48.96964,-26.33087 0.48804,0.0138 -6.76266,3.97254 -16.11266,8.79725 -32.37586,16.70633 -60.03732,35.9651 -81.33049,56.6248 -11.29945,10.9633 -17.87742,19.62455 -22.83903,30.07229 -3.20457,6.74792 -3.79105,9.08114 -4.14535,16.49169 -0.36934,7.72499 -0.13736,9.21377 2.20832,14.17213 2.45368,5.18665 9.56134,12.93945 15.60655,17.0231 1.375,0.92884 2.04196,1.7124 1.48213,1.74125 -0.55982,0.0289 -2.80982,-1.13432 -5,-2.58481 z m 65.51787,-1.99312 c -26.19291,-3.75105 -42.73436,-10.49839 -49.86319,-20.33945 -5.32496,-7.3509 -6.29057,-16.93975 -2.59622,-25.78156 1.98367,-4.74759 2.74406,-3.72421 0.95825,1.28967 -2.07328,5.82099 -1.8794,14.79545 0.41687,19.29651 2.30439,4.51696 9.44003,11.28777 14.73488,13.98151 6.25016,3.17975 17.00093,6.13208 30.34587,8.33346 10.80463,1.78233 15.28896,1.98901 33.00354,1.52107 23.38328,-0.61768 34.88216,-2.17878 57.05677,-7.74611 58.28494,-14.63347 109.98169,-40.39442 149.94323,-74.71805 l 7.5,-6.44187 -7.49462,7.25887 c -40.95821,39.66986 -124.97868,75.96917 -192.00538,82.95197 -8.9086,0.92809 -36.46535,1.18658 -42,0.39398 z m 3,-9.44697 c -9.18958,-1.16458 -19.16812,-3.08786 -18.65952,-3.59646 0.23671,-0.23671 6.7625,0.26806 14.50176,1.12171 7.73925,0.85366 18.02831,1.61223 22.86457,1.68571 8.05413,0.12239 8.37295,0.19907 3.79319,0.9124 -6.28839,0.97945 -14.13743,0.93642 -22.5,-0.12336 z m 8,-5.9646 c -10.14121,-1.00705 -22.01093,-3.29784 -19.32196,-3.72903 1.19793,-0.1921 7.57446,0.35279 14.17007,1.21086 6.59561,0.85807 15.47799,1.56012 19.73862,1.56012 4.26063,0 7.5591,0.16252 7.32994,0.36116 -1.02528,0.88869 -15.11421,1.27239 -21.91667,0.59689 z m 2,-4.94834 c -2.67838,-0.41062 1.77448,-0.67465 11,-0.65224 11.03895,0.0268 13.77314,0.23737 9.5,0.73156 -7.39705,0.85547 -14.58405,0.82766 -20.5,-0.0793 z m -0.5,-7.97857 c -2.2,-0.37678 2.075,-0.4768 9.5,-0.22228 7.425,0.25453 13.6875,0.62666 13.91667,0.82696 0.71963,0.62899 -19.2197,0.1141 -23.41667,-0.60468 z m 6.68546,-4.26733 c -4.023,-0.53243 -7.15851,-1.12409 -6.9678,-1.3148 0.19071,-0.19071 7.75725,-0.0513 16.81454,0.30984 12.04705,0.48032 15.25978,0.84937 11.9678,1.37474 -5.89102,0.94016 -12.80188,0.82301 -21.81454,-0.36978 z m 171.81454,0.93569 c 0,-0.2647 4.8375,-3.29261 10.75,-6.7287 24.5437,-14.26373 48.08956,-30.7033 64.25,-44.85895 12.36694,-10.83276 13.75127,-11.66131 4.58627,-2.74499 -10.76147,10.46948 -21.3497,18.86121 -36.53624,28.95692 -17.92912,11.91893 -43.05003,26.72638 -43.05003,25.37572 z M 216.04044,444.5444 c -4.18281,-0.99062 -5.7306,-2.46374 -1.69925,-1.61728 1.65,0.34645 6.89399,0.73651 11.65331,0.86681 4.75932,0.1303 8.44526,0.57441 8.19098,0.98691 -0.59248,0.96115 -13.81587,0.78884 -18.14504,-0.23644 z m 9.55075,-5.74577 c 2.3375,-0.21053 6.1625,-0.21053 8.5,0 2.3375,0.21054 0.425,0.3828 -4.25,0.3828 -4.675,0 -6.5875,-0.17226 -4.25,-0.3828 z m -6.9375,-0.9509 c 0.72187,-0.28887 1.58437,-0.25335 1.91667,0.0789 0.33229,0.33229 -0.25834,0.56864 -1.3125,0.52522 -1.16495,-0.048 -1.4019,-0.28494 -0.60417,-0.60416 z m 20.9375,0.0208 c 0.6875,-0.27741 1.8125,-0.27741 2.5,0 0.6875,0.27741 0.125,0.50439 -1.25,0.50439 -1.375,0 -1.9375,-0.22698 -1.25,-0.50439 z m -11.97357,-4.07122 c 2.35204,-0.21124 5.95204,-0.20827 8,0.007 2.04796,0.21487 0.12357,0.38771 -4.27643,0.38408 -4.4,-0.004 -6.07561,-0.17944 -3.72357,-0.39069 z m 4.22357,-3.26647 c -2.93634,-0.61807 -2.45321,-0.75545 3,-0.85305 3.575,-0.064 7.175,0.31989 8,0.85305 1.79311,1.1588 -5.49479,1.1588 -11,0 z m 13.75,-0.66228 c 0.6875,-0.27741 1.8125,-0.27741 2.5,0 0.6875,0.27741 0.125,0.50439 -1.25,0.50439 -1.375,0 -1.9375,-0.22698 -1.25,-0.50439 z m -3.0223,-3.05945 c 1.77523,-0.22091 4.92523,-0.22454 7,-0.008 2.07476,0.21648 0.6223,0.39722 -3.2277,0.40166 -3.85,0.004 -5.54754,-0.17268 -3.7723,-0.39359 z m -88.83898,-14.05579 c 7.79495,-10.03423 28.99432,-27.81841 48.61128,-40.78007 10.58199,-6.99192 26.5,-16.10077 26.5,-15.16424 0,0.24854 -3.7125,2.60388 -8.25,5.23409 -21.64891,12.54901 -40.87544,26.88031 -57.67132,42.98774 -6.88209,6.6 -11.01757,10.07511 -9.18996,7.72248 z m 295.53707,-35.74956 c 12.44548,-18.99421 15.8775,-35.60086 9.82421,-47.53674 -3.59155,-7.08182 -8.8193,-10.90399 -19.86556,-14.52435 -8.73088,-2.8615 -9.25605,-2.9107 -30.38444,-2.84643 -24.17027,0.0735 -36.91528,1.72673 -72.7988,9.44304 -10.58999,2.27725 -19.73242,3.98115 -20.31649,3.78646 -1.41113,-0.47037 41.27417,-9.27082 57.11529,-11.77548 27.78529,-4.39317 44.04994,-4.7715 60.69998,-1.41194 9.04746,1.82555 13.53271,3.684 19.59192,8.11787 14.09762,10.31602 14.10038,33.10263 0.007,54.39978 -1.35571,2.04862 -3.15926,3.9912 -4.00789,4.31685 -1.32556,0.50866 -1.30651,0.23123 0.13518,-1.96906 z m 34.49385,-9.22292 c 3.72323,-7.40973 5.70356,-13.42241 7.14273,-21.68676 1.41176,-8.10694 0.62651,-15.13208 -2.57796,-23.06324 -2.04844,-5.06995 -2.12645,-5.61248 -0.50327,-3.5 5.42322,7.05802 6.42412,25.10155 2.08017,37.5 -2.61013,7.44983 -7.11308,16.5 -8.20963,16.5 -0.45171,0 0.47888,-2.5875 2.06796,-5.75 z M 328.34119,312.46341 c 3.85,-1.03779 7.675,-1.85655 8.5,-1.81947 0.825,0.0371 -1.65,0.91654 -5.5,1.95433 -3.85,1.03779 -7.675,1.85655 -8.5,1.81947 -0.825,-0.0371 1.65,-0.91654 5.5,-1.95433 z m 10.58333,-2.33547 c 0.70355,-0.6803 34.81019,-7.45636 45.41667,-9.02306 37.19058,-5.49346 65.83903,-3.77772 85.77078,5.13676 3.17393,1.41954 5.6056,2.74615 5.40371,2.94804 -0.20188,0.20188 -2.98016,-0.78857 -6.17395,-2.20102 -13.19703,-5.83635 -20.81745,-6.96021 -47.00054,-6.93159 -26.37676,0.0288 -35.029,0.96468 -65,7.03062 -16.95081,3.43074 -19.20541,3.80293 -18.41667,3.04025 z m 308.64899,149.87077 c 21.1755,-1.71425 39.06277,-11.53059 41.71112,-22.89061 l 0.68138,-2.92275 -4.00268,3.61617 c -2.20146,1.9889 -5.45282,4.36608 -7.22523,5.28263 -21.49709,11.11658 -64.68638,11.4627 -96.89691,0.77654 -10.69036,-3.54664 -23.83478,-9.9413 -27.56445,-13.40991 -2.51095,-2.33519 -5.00848,-2.47525 -5.8328,-0.3271 -0.69419,1.80901 10.6396,14.15776 16.08027,17.52027 9.35759,5.78331 33.25875,11.5467 53.31698,12.85656 11.29203,0.7374 15.24997,0.6706 29.73232,-0.5018 z m 9.67535,-12.93717 c 14.68243,-3.11328 26.25913,-8.97076 29.70663,-15.0307 2.33801,-4.10971 0.83146,-8.05033 -5.6143,-14.68505 -3.78561,-3.89658 -7.71406,-6.44213 -16.17455,-10.48076 -6.146,-2.9338 -11.38896,-5.33419 -11.65102,-5.33419 -0.26206,0 -0.45354,1.4625 -0.4255,3.25 0.028,1.7875 -0.46802,5.10375 -1.10237,7.36945 -2.7651,9.87625 -9.46961,13.58435 -25.61289,14.16587 -13.32437,0.47997 -22.34322,-1.19896 -32.02616,-5.96194 -8.83814,-4.34742 -11.01094,-7.24154 -10.99624,-14.64671 0.006,-3.12217 0.33607,-7.15726 0.73304,-8.96687 0.62409,-2.84491 0.50297,-3.16775 -0.89492,-2.38545 -0.89682,0.50189 -3.20237,0.54711 -5.17784,0.10157 -1.95863,-0.44174 -3.86738,-0.61391 -4.24167,-0.38259 -1.74612,1.07917 -9.13877,14.88704 -8.14736,15.21751 0.60777,0.20259 2.65786,1.57678 4.55577,3.05375 1.89791,1.47698 4.28572,3.2569 5.30623,3.95538 1.67868,1.14896 1.61727,1.20737 -0.64452,0.613 -1.375,-0.36133 -4.43456,-1.98211 -6.79902,-3.60173 -3.4602,-2.3702 -4.58212,-2.70981 -5.75,-1.74056 -2.14977,1.78416 -1.84351,2.37042 2.51918,4.8224 2.18359,1.22724 4.28549,2.74156 4.67089,3.36514 0.38539,0.62358 -1.48565,-0.0882 -4.15787,-1.58173 -4.70623,-2.63036 -4.91592,-2.65819 -6.68662,-0.8875 -1.77069,1.7707 -1.6259,1.93601 4.61723,5.27166 8.3348,4.45322 7.61557,5.24296 -0.93931,1.0314 -5.27208,-2.59543 -6.8514,-2.99412 -8.01969,-2.02453 -2.2362,1.85588 -1.75607,3.5004 1.79521,6.14898 13.63053,10.16579 38.52682,18.63625 62.25,21.17931 8.22051,0.88122 31.21128,-0.20316 38.90767,-1.83511 z M 574.2003,410.60815 c -1.72749,-1.05336 -3.4666,-2.44222 -3.8647,-3.08635 -0.39809,-0.64413 1.12781,0.0542 3.39089,1.55184 3.5618,2.35708 4.80446,3.46751 3.8647,3.45346 -0.1375,-0.002 -1.6634,-0.86558 -3.39089,-1.91895 z m -19.14606,35.19014 c -2.34577,-0.83618 -7.21305,-5.42293 -7.21305,-6.79733 0,-0.74365 -0.51953,-1.67317 -1.15451,-2.06561 -0.76393,-0.47214 -0.88081,-0.27068 -0.34549,0.59549 0.52397,0.8478 0.41763,1.06713 -0.30182,0.62248 -0.61096,-0.37759 -0.85734,-1.34712 -0.54752,-2.15451 0.72662,-1.89353 -1.04596,-1.90152 -2.61431,-0.0118 -1.55048,1.86821 -0.82291,2.97535 2.99434,4.55651 1.90116,0.78749 2.87495,1.79079 2.55284,2.63021 -0.31201,0.8131 0.16814,1.36983 1.19785,1.38888 0.94524,0.0175 2.58577,0.68785 3.64562,1.48967 1.05985,0.80183 2.18485,1.17591 2.5,0.83129 0.31515,-0.34461 -0.006,-0.833 -0.71395,-1.08531 z m 67.1401,-25.01745 c 0.28163,-1.5125 0.78778,-4.4375 1.12477,-6.5 l 0.61271,-3.75 h -4.93177 -4.93177 l -0.69399,4.62785 c -0.3817,2.54532 -0.9203,5.21761 -1.19691,5.93843 -0.35502,0.92517 0.77142,1.42434 3.83045,1.69744 2.38335,0.21278 4.63511,0.46548 5.0039,0.56157 0.3688,0.0961 0.90098,-1.06279 1.18261,-2.57529 z m 6.49913,2.12954 c 2.63121,-0.52624 3.19041,-1.1716 3.68262,-4.25 0.31918,-1.99625 0.78798,-4.64204 1.04177,-5.87954 0.41555,-2.02627 0.0753,-2.25 -3.42169,-2.25 -3.8041,0 -3.8958,0.0865 -4.50551,4.25 -0.34231,2.3375 -0.90596,5.2625 -1.25255,6.5 -0.68039,2.42928 -0.27841,2.5763 4.45536,1.62954 z m -17.84127,-3.62954 c 0.006,-1.2375 0.28412,-3.9017 0.61793,-5.92043 0.58997,-3.56791 0.50044,-3.69984 -3.20478,-4.7229 -2.09644,-0.57885 -3.887,-0.95216 -3.97903,-0.82957 -0.092,0.1226 -0.45606,2.78736 -0.80895,5.92169 -0.54078,4.80318 -0.36616,5.85922 1.1111,6.71959 3.22122,1.87607 6.2516,1.31081 6.26373,-1.16838 z m 28.83867,0.5 c 0.50603,-0.9625 1.24843,-4.18043 1.64979,-7.15097 0.65284,-4.83184 0.55098,-5.33237 -0.96666,-4.75 -0.93301,0.35804 -2.27661,0.65097 -2.98577,0.65097 -0.79257,0 -1.54557,1.93123 -1.95427,5.01218 -0.36569,2.7567 -0.92181,5.6817 -1.23582,6.5 -0.84331,2.19763 4.32931,1.95073 5.49273,-0.26218 z m 8.59174,-10.7079 c 0.8208,-5.47354 0.48745,-6.13914 -2.22596,-4.44458 -1.39423,0.87071 -2.16163,2.78742 -2.59612,6.48421 -0.33925,2.88646 -0.88375,6.07389 -1.21002,7.08319 -0.38816,1.2008 0.42932,0.75798 2.36514,-1.28117 2.01621,-2.12383 3.18401,-4.62114 3.66696,-7.84165 z m -46.84055,3.82996 1.03098,-5.62793 -3.2838,-1.37207 c -1.8061,-0.75463 -3.52327,-1.37206 -3.81593,-1.37206 -0.29267,0 -0.53212,2.63123 -0.53212,5.84719 0,5.07556 0.29692,5.99038 2.25,6.93232 1.2375,0.59682 2.49072,1.11559 2.78494,1.15281 0.29422,0.0372 0.99889,-2.46489 1.56593,-5.56026 z m -8.79281,-4.04895 c 0.23438,-5.60102 -0.57886,-7.2713 -3.55806,-7.3078 -1.93481,-0.0237 -1.60978,8.92966 0.40499,11.15595 0.91024,1.00581 1.93861,1.82874 2.28525,1.82874 0.34665,0 0.73717,-2.5546 0.86782,-5.67689 z m 44.69194,-3.00766 c 5.50183,-1.91633 11.5,-6.02602 11.5,-7.8793 0,-1.94564 -2.81324,-7.45149 -3.77568,-7.38948 -0.39838,0.0257 -1.63663,1.93817 -2.75168,4.25 -2.99361,6.20668 -9.3613,9.13236 -19.95694,9.16936 -4.40864,0.0154 -9.90928,-0.54541 -12.22365,-1.24624 -6.00997,-1.81991 -12.56901,-7.12604 -13.92328,-11.26363 -0.62218,-1.90089 -1.73389,-3.45616 -2.47047,-3.45616 -1.71402,0 -3.86449,4.22663 -3.88356,7.63293 -0.0123,2.20137 0.84578,3.03761 5.23526,5.10186 15.66457,7.36661 30.5484,9.15643 42.25,5.08066 z m -4.75448,-5.85359 c 8.40132,-3.51029 10.14364,-8.15263 2.00448,-5.34084 -9.73434,3.36287 -27.26771,1.5596 -32.48407,-3.34092 -2.60747,-2.44959 -3.96481,-1.87204 -2.20876,0.93983 1.58997,2.54596 6.98559,6.17508 11.66042,7.84287 5.17858,1.84751 16.49464,1.79319 21.02793,-0.10094 z m 3.14434,-8.52011 c 3.6372,-2.04423 6.30632,-6.0789 4.93118,-7.45404 -0.23053,-0.23054 -2.61084,0.69042 -5.28957,2.04657 -9.74532,4.93371 -27.32297,2.35144 -32.99741,-4.84753 l -2.51188,-3.18675 -0.0111,4.15576 c -0.0102,3.84076 0.34091,4.38892 4.63266,7.23166 2.55406,1.69174 6.26656,3.346 8.25,3.67613 1.98344,0.33013 4.05625,0.78028 4.60625,1.00034 2.99353,1.19773 14.51673,-0.44533 18.38986,-2.62214 z m -0.40422,-8.05769 c 4.22433,-2.87687 4.39575,-4.68781 0.76436,-8.07478 -3.7401,-3.48837 -5.88716,-4.4316 -11.79765,-5.18288 -8.74036,-1.11098 -18.82489,1.99121 -20.23616,6.22502 -0.63361,1.90085 6.24982,7.80395 10.48826,8.99452 6.34084,1.78113 16.72447,0.80085 20.78119,-1.96188 z"
       id="path1" />
  </g>
</svg>
