<?xml version="1.0" encoding="UTF-8" standalone="no"?>
<!-- Created with Inkscape (http://www.inkscape.org/) -->

<svg
   version="1.1"
   id="svg1"
   width="923"
   height="923"
   viewBox="0 0 923 923"
   xmlns="http://www.w3.org/2000/svg"
   xmlns:svg="http://www.w3.org/2000/svg">
  <defs
     id="defs1" />
  <g
     id="g1">
    <path
       style="fill:#000000"
       d="m 427.45679,803.34186 c -67.3357,-2.974 -126.6131,-12.27481 -188.5,-29.57623 -30.2777,-8.46459 -66.3755,-21.846 -76,-28.17306 -2.2,-1.44627 -8.9976,-5.20261 -15.1058,-8.34742 -53.394998,-27.49042 -90.394198,-68.94164 -90.394198,-101.27096 0,-2.06195 -1.04922,-2.05951 -5.39437,0.0126 -7.19501,3.43106 -13.53641,-2.9585 -12.14498,-12.23721 0.54046,-3.60401 0.31674,-4.45632 -1.50455,-5.732 -7.39531,-5.17988 -9.03335,-26.86697 -2.26231,-29.95206 l 2.57272,-1.17221 -0.61463,-11.52877 c -0.33805,-6.34082 -0.91726,-19.96179 -1.28714,-30.26882 l -0.67251,-18.7401 -4.33975,-5.08415 c -15.11108,-17.70308 -17.3512,-113.94515 -2.97923,-127.99642 l 2.93639,-2.87086 -0.65434,-15.78423 c -0.35988,-8.68133 -0.94221,-25.00924 -1.29405,-36.28424 l -0.63972,-20.5 -3.84892,-4.37733 c -7.10011,-8.07488 -8.02828,-23.01055 -1.9416,-31.24323 1.72812,-2.33741 2.06899,-4.26772 2.06899,-11.7165 0,-10.21723 0.56681,-11.13436 7.35412,-11.89939 8.34841,-0.94098 10.63028,2.77626 10.6403,17.33344 0.005,6.59616 0.3682,8.51509 1.96191,10.35265 1.07598,1.24062 2.49001,3.89697 3.14228,5.90301 1.30376,4.00962 3.82745,8.15629 4.02889,6.61986 0.83135,-6.3411 0.34094,-11.64626 -1.93872,-20.97251 -10.33876,-42.29664 9.17638,-73.90084 62.567218,-101.32586 54.7987,-28.14813 165.4927,-51.03231 269.244,-55.66177 6.875,-0.30677 15.2953,-0.80653 18.7118,-1.11057 8.8082,-0.78387 98.2898,-0.74515 113.2882,0.049 39.2002,2.07565 86.669,6.16587 106.5,9.17672 5.5,0.83505 14.275,2.13743 19.5,2.89419 15.4815,2.24227 46.2795,8.29379 64.5,12.67366 9.35,2.24756 18.0073,4.29952 19.2384,4.55989 1.231,0.26038 1.9952,0.86681 1.698,1.34761 -0.2971,0.48081 0.1294,0.61723 0.9478,0.30316 1.8992,-0.72877 32.0127,8.24417 49.6158,14.78402 24.6858,9.17121 63.2571,29.96687 61.3388,33.07073 -0.3653,0.59105 -0.1704,0.75316 0.4468,0.37169 1.325,-0.81887 8.4392,5.19471 7.6521,6.46825 -0.3056,0.49459 0.033,0.91544 0.7533,0.93522 5.7993,0.15933 20.8036,22.16737 24.3219,35.6747 1.9038,7.30921 1.9059,21.81297 0.01,30.78971 -1.5762,7.44115 -1.9934,20.2027 -0.7257,22.19684 1.0858,1.708 2.7776,0.22575 2.9548,-2.58875 0.083,-1.31535 1.2663,-3.56535 2.63,-5 2.2759,-2.39434 2.5115,-3.52961 2.871,-13.83031 0.7157,-20.52446 17.752,-23.36357 17.752,-2.95844 0,7.17573 1.5073,11.11489 5.2703,13.77317 4.347,3.07084 1.3934,24.16934 -4.0761,29.11692 l -3.6942,3.34172 -0.2416,15.47425 c -0.1329,8.51084 -0.7052,25.20196 -1.2718,37.09139 l -1.0302,21.61714 3.5241,5.23669 c 14.5066,21.55682 9.997,116.7346 -5.9777,126.15988 -2.0062,1.18368 -3.1792,2.54897 -2.8737,3.34491 0.5919,1.54266 -1.3838,49.44165 -2.2324,54.12058 -0.4859,2.67901 0.01,3.64006 3.678,7.13034 l 4.2396,4.034 0.05,8.36966 c 0.057,9.57888 -1.4529,15.00774 -4.9365,17.74794 -1.8178,1.42983 -2.4291,2.87831 -2.4332,5.76564 -0.01,5.76976 -1.8209,11.19285 -4.1593,12.44431 -3.5247,1.88633 -9.0493,1.36549 -10.9943,-1.03648 l -1.7396,-2.14826 -1.4114,2.79826 c -0.7763,1.53904 -2.2126,6.17325 -3.1919,10.29825 -4.1467,17.4676 -10.7734,31.41927 -20.4201,42.99177 -13.9032,16.6788 -32.8037,32.18599 -52.0779,42.72798 -27.4538,15.0159 -68.9974,33.38612 -76.1517,33.67367 -1.4584,0.0586 -2.4813,0.38432 -2.273,0.72379 0.2083,0.33947 -1.9735,1.31105 -4.8483,2.15907 -2.8748,0.84802 -9.727,2.89403 -15.227,4.54669 -9.6327,2.89447 -34.7317,9.39329 -43,11.13385 -2.2,0.46313 -9.4,1.9893 -16,3.3915 -20.1736,4.28597 -39.0775,7.47794 -59.5,10.0467 -18.4749,2.3238 -27.4954,3.2431 -55.5,5.65612 -15.891,1.36926 -68.5412,1.92485 -90.5,0.955 z m 24.4488,-5.75614 c -0.4208,-0.9625 -1.26,-4.54353 -1.8648,-7.95786 -0.6048,-3.41432 -1.6587,-6.76682 -2.3419,-7.45 -0.6831,-0.68317 -1.2421,-2.03012 -1.2421,-2.9932 0,-1.11753 -2.3764,-3.08001 -6.5682,-5.42423 -7.2933,-4.0786 -7.2523,-4.07198 -42.9318,-6.94471 -68.7694,-5.53697 -135.7275,-18.73195 -192.4584,-37.92645 -18.8409,-6.37471 -23.1848,-5.53957 -24.5622,4.7222 -0.5848,4.35648 -1.902,8.36821 -4.2647,12.98848 -0.8436,1.64967 35.5329,14.8462 61.2853,22.23283 65.0351,18.6542 135.8618,29.1839 203.857,30.30708 10.9567,0.18099 11.7989,0.063 11.0918,-1.55414 z m 82.0512,-0.67218 c 52.5436,-4.50156 114.4099,-15.93959 160.0303,-29.58689 17.9541,-5.37095 50.4697,-17.21388 50.4697,-18.38223 0,-0.20045 -0.7385,-2.10691 -1.6412,-4.23658 -0.9027,-2.12966 -1.7175,-6.79317 -1.8107,-10.36333 l -0.1694,-6.49121 -4.4737,-1.66104 c -4.4204,-1.64126 -4.5745,-1.6249 -12.9393,1.37386 -61.1954,21.9382 -128.8114,34.8009 -211.9657,40.32255 -32.2748,2.14313 -42,5.49351 -42,14.46926 0,5.76934 -1.9492,13.78411 -3.8032,15.63809 -2.0615,2.0615 39.2473,1.40683 68.3032,-1.08248 z m -71.2663,-1.32782 c 0.8491,-0.9625 1.9892,-3.8875 2.5338,-6.5 l 0.99,-4.75 h -6.3197 c -7.2321,0 -7.9209,0.59064 -6.5365,5.60484 1.8546,6.71678 6.1143,9.29342 9.3324,5.64516 z m 1.5163,-14.72858 c 6.3521,-1.57963 2.3523,-4.0203 -6.7503,-4.11898 -9.33,-0.10114 -9.745,0.0433 -7.7179,2.68533 2.0127,2.62329 7.4984,3.16687 14.4682,1.43365 z m 11.4208,-11.08347 c 9.0543,-3.87213 12.1403,-4.31124 45.3292,-6.44983 67.4983,-4.34936 137.8244,-17.55269 190,-35.67138 22.9806,-7.98034 20.8748,-7.60216 27.3338,-4.9088 15.3206,6.3885 25.1427,3.68709 28.802,-7.92147 1.7814,-5.65121 5.9269,-10.48647 8.9906,-10.48647 3.3449,0 7.1146,2.95519 7.7366,6.06482 0.7687,3.84355 0.9612,3.78557 12.1496,-3.65935 10.1311,-6.74135 10.8829,-8.3662 2.0094,-4.34275 -7.6899,3.48675 -8.8788,3.57275 -12.3638,0.89436 -1.462,-1.12361 -3.7629,-2.86738 -5.113,-3.87505 -1.9367,-1.44542 -2.5064,-2.86111 -2.6994,-6.70708 -0.1345,-2.68122 -0.2674,-4.99782 -0.2952,-5.148 -0.3403,-1.83642 -5.9595,4.59846 -8.0554,9.22476 -5.4374,12.002 -14.677,15.38093 -30.0273,10.98097 -10.0283,-2.8745 -9.8534,-2.89703 -30.5813,3.93843 -61.3569,20.2337 -126.7753,31.64361 -203.8866,35.56073 -15.0331,0.76366 -17.6781,1.16399 -22.8613,3.46007 -19.0169,8.42424 -29.1157,8.59044 -45.6387,0.75108 -6.2664,-2.97308 -7.3446,-3.13907 -30,-4.61841 -75.7804,-4.94828 -135.9661,-15.92098 -195.3282,-35.61106 -20.5022,-6.80045 -20.2717,-6.77658 -31.6202,-3.27469 -13.5616,4.18479 -18.7656,3.42054 -25.989,-3.81666 l -3.3158,-3.32217 0.5194,6.11341 c 1.5087,17.75737 10.7058,22.1056 32.5617,15.39455 l 7.3279,-2.2501 7.6721,2.69464 c 64.8568,22.77935 127.0873,34.53995 224.2151,42.37314 9.4688,0.76363 12.5237,1.4288 17,3.70147 11.821,6.00159 23.5336,6.29688 36.1278,0.91084 z m -3.6708,-18.24932 c 2.75,-1.09926 7.4619,-2.97731 10.4708,-4.17345 4.5267,-1.79953 8.7543,-2.33321 24.5,-3.09286 71.0057,-3.42567 138.1537,-14.83669 194.0292,-32.97303 27.5122,-8.93002 29.4382,-9.3849 34,-8.03008 19.075,5.66514 26.0009,4.06004 31.3567,-7.26712 3.0398,-6.42902 7.0177,-11.16005 10.2444,-12.18416 1.5802,-0.50155 1.8989,-1.58475 1.8989,-6.45419 v -5.85149 l -8.4352,4.16888 c -7.9,3.90432 -8.4394,4.37137 -8.5,7.35985 -0.036,1.75504 -0.5148,3.4691 -1.0648,3.80902 -2.3726,1.46635 -1.1162,6.5 1.6224,6.5 2.2694,0 2.4471,0.21135 1.3199,1.56952 -0.7164,0.86324 -2.1215,1.35537 -3.1224,1.09362 -1.1804,-0.30866 -1.8199,0.0674 -1.8199,1.07024 0,5.02864 -11.9561,5.7084 -15.2482,0.86692 -0.4114,-0.60517 -0.4728,-3.0128 -0.1364,-5.3503 0.7889,-5.48143 2.1242,-5.65787 -24.0825,3.18204 -29.9317,10.09642 -46.9836,14.74447 -82.5329,22.49697 -35.9324,7.83605 -75.3814,13.25673 -117,16.07694 -36.1284,2.44817 -35.0298,2.2751 -44.9555,7.08245 -4.9745,2.40931 -9.0445,4.72505 -9.0445,5.14608 0,0.42104 -0.9,1.66552 -2,2.76552 -3.9908,3.99083 -13,1.5395 -13,-3.53721 0,-5.04228 -16.7998,-10.43836 -32.5507,-10.45524 -53.8065,-0.0576 -150.3628,-17.82533 -213.9493,-39.36964 -28.2759,-9.5804 -26.8119,-9.44097 -25.6189,-2.43993 0.065,0.38389 1.4768,0.2246 3.1366,-0.35398 3.2816,-1.144 8.4177,-0.35756 7.4881,1.14658 -0.3168,0.51258 -2.2477,1.23736 -4.2909,1.61064 -2.0432,0.37328 -5.9366,1.74071 -8.652,3.03873 -10.7252,5.12681 -15.1018,2.37355 -15.8509,-9.9716 -0.5651,-9.31147 0.7196,-7.84979 -14.712,-16.73862 C 89.530492,640.05109 68.564592,612.2959 68.460492,570.33572 c -0.043,-17.12284 -0.5742,-18.73013 -3.7401,-11.30445 -18.01172,42.24787 8.6975,87.56511 70.642498,119.85822 l 11.4061,5.94623 2.8835,6.31523 c 6.7492,14.78209 14.1461,18.97919 25.8851,14.68755 11.7056,-4.27944 17.2465,-3.91122 35.9192,2.38698 63.172,21.30753 121.3851,31.56327 207.9335,36.63288 10.1542,0.59478 12.2496,1.05179 18.7269,4.08436 12.6105,5.90402 23.4577,6.73156 33.8396,2.58163 z m -11.5,-4.16656 c 1.6208,-1.02355 1.7201,-4.94775 1.2352,-48.77207 l -0.2352,-21.25 h -4.1553 -4.1553 l 0.5767,34.6424 c 0.6284,37.7505 0.8807,39.07615 6.7339,35.37967 z m 290.8932,-1.02207 c 1.9258,0 5.1068,-4.34774 5.1068,-6.97994 0,-3.53175 -0.2846,-3.72362 -6.8074,-4.58891 l -5.1926,-0.68881 v 3.16095 c 0,4.82107 2.6515,10.44444 4.5763,9.70579 0.873,-0.33499 1.9156,-0.60908 2.3169,-0.60908 z m -577.4983,-5.25 c 2.8314,-7.71234 2.3556,-8.09387 -7.6449,-6.13088 -4.1999,0.82438 -3.7978,4.37108 0.5,4.41129 2.6921,0.0252 2.9496,0.20539 1.5,1.04969 -2.3804,1.38648 -2.1982,2.80421 0.5,3.88874 3.4128,1.37178 3.4735,1.33382 5.1449,-3.21884 z m 603.2952,-7.72201 c 24.3457,-12.62487 35.9,-20.82049 51.0737,-36.22734 l 7.2637,-7.37539 1.4688,-8.96263 c 1.7334,-10.57734 1.9023,-16.46263 0.4723,-16.46263 -1.1985,0 -1.3182,0.36819 -2.9265,9 -1.8613,9.98961 -12.1108,22 -18.7744,22 -0.5055,0 -2.01,1.16389 -3.3434,2.58642 -5.1261,5.46884 -26.3611,19.41358 -29.563,19.41358 -0.5206,0 -1.4881,-2.025 -2.1501,-4.5 -2.1268,-7.95209 -7.3812,-5.83167 -10.6835,4.31136 -2.9524,9.06841 -4.5826,10.24275 -16.0766,11.58106 -11.3877,1.32591 -11.2948,2.66128 0.2367,3.40133 7.4139,0.47579 9.4736,1.44484 7.4251,3.49338 -1.1914,1.19139 -1.5511,5.71287 -0.4545,5.71287 0.3622,0 7.5764,-3.5874 16.0317,-7.97201 z m -307.5585,5.44668 c 3.6125,-0.69571 3.5712,-1.65842 -0.056,-1.30657 -1.8819,0.18255 -3.6271,0.95704 -3.8783,1.7211 -0.2762,0.83979 -0.011,1.11398 0.6692,0.6933 0.6193,-0.38274 2.0885,-0.88126 3.265,-1.10783 z m -309.5903,-2.42909 c -1.1902,-1.31507 -1.6292,-2.9934 -1.3251,-5.06551 0.3799,-2.5883 0.01,-3.33014 -2.2603,-4.50289 -3.3904,-1.75321 -6.7202,-7.28882 -8.0274,-13.34509 l -0.9999,-4.63209 -14.7143,-7.46476 c -27.404,-13.90241 -48.068398,-29.8287 -61.442498,-47.35435 -6.9706,-9.13438 -7.49186,-9.20461 -4.677,-0.63014 9.843,29.98315 36.084898,55.48201 81.379798,79.07528 13.0522,6.79867 15.3467,7.54399 12.0667,3.91955 z m 286.7087,0.29214 c -0.6875,-0.27741 -1.8125,-0.27741 -2.5,0 -0.6875,0.27741 -0.125,0.50439 1.25,0.50439 1.375,0 1.9375,-0.22698 1.25,-0.50439 z m 2.6925,-31.08772 -0.1606,-28.75 -4.829,-4.66848 c -11.0637,-10.69582 -15.2892,-39.67203 -13.5281,-92.76684 1.3598,-40.99702 3.6346,-48.46412 15.4437,-50.69529 l 3.3685,-0.63643 -0.6962,-27.10546 c -0.4438,-17.2812 -1.0804,-27.34296 -1.7564,-27.76072 -2.9612,-1.83015 -8.761,-1.7784 -12.9345,0.11542 -17.1722,7.7923 -141.2397,-6.65247 -210.3499,-24.49034 -37.1549,-9.58995 -48.4933,-14.88139 -51.5165,-24.04184 -1.2092,-3.66393 -2.9694,-4.3769 -4.9409,-2.00135 -1.0905,1.31401 0.2489,57.22275 1.4662,61.20167 0.1936,0.63268 2.1358,1.45171 4.316,1.82006 23.0645,3.89673 26.6343,14.61247 26.6604,80.0296 0.022,53.97826 -0.3857,55.43499 -16.4852,58.95579 -1.375,0.3007 -3.9091,1.78366 -5.6313,3.29547 l -3.1313,2.74874 1.1313,25.6674 c 0.6222,14.11707 1.3563,25.87694 1.6313,26.13304 0.275,0.25609 12.0816,4.27421 26.2368,8.92913 14.1552,4.65493 25.4052,8.82971 25,9.27729 -0.4052,0.44759 -0.1943,0.50242 0.4689,0.12186 0.6631,-0.38056 9.4381,1.55778 19.5,4.30743 18.9404,5.17593 44.7471,10.99691 57.7943,13.03615 4.125,0.64473 10.65,1.78386 14.5,2.5314 17.4147,3.38135 71.7752,9.15361 99.5,10.56539 16.7002,0.85039 26.0427,1.7638 28.8016,2.81591 0.1658,0.0633 0.2292,-12.8225 0.1409,-28.635 z m -278.1925,25.61282 c 7.9122,-1.77998 6.643,-3.39544 -2.4991,-3.18108 -4.7919,0.11237 -7.7127,0.58957 -7.6509,1.25 0.055,0.58754 0.1675,1.79574 0.25,2.68489 0.1082,1.16587 0.7774,1.45082 2.4,1.02195 1.2375,-0.32707 4.6125,-1.12616 7.5,-1.77576 z m 341.133,-0.4328 c 48.3793,-3.26384 97.0824,-10.13133 135.617,-19.12294 31.5656,-7.36548 47.4452,-12.01823 79.75,-23.36687 7.5625,-2.6567 13.75,-4.54008 13.75,-4.18529 0,0.3548 0.449,0.19609 0.9978,-0.35267 1.0641,-1.06416 1.5346,-5.80139 2.4732,-24.90225 0.3244,-6.6 0.8291,-15.65329 1.1218,-20.11841 l 0.532,-8.11841 -4.3932,-2.57459 c -2.4163,-1.41602 -6.4566,-3.09416 -8.9786,-3.72921 -11.4843,-2.89178 -12.3072,-5.84647 -13.3556,-47.95938 -1.6596,-66.66237 2.8273,-84.76424 22.3097,-90.00546 7.1661,-1.92784 6.4637,1.29073 7.965,-36.49454 1.0077,-25.36351 0.8955,-28.5 -1.0202,-28.5 -0.7415,0 -2.145,1.76705 -3.1189,3.92678 -4.4669,9.9059 -15.6712,14.90823 -56.033,25.01687 -70.4101,17.63426 -193.3498,31.1957 -209.8474,23.1482 -4.5439,-2.2165 -5.1856,-2.2834 -10.25,-1.06849 l -5.4026,1.29607 v 26.85289 26.8529 l 5.25,2.34301 c 11.0512,4.93198 12.564,10.29857 14.7806,52.4318 2.8493,54.15969 -1.9773,82.21592 -15.8389,92.06784 l -3.3083,2.35132 0.2767,26.14041 c 0.1522,14.37722 0.4595,27.17193 0.683,28.43269 0.4667,2.63347 1.7889,2.62307 46.0399,-0.36227 z m -364.167,-32.51094 c -1.1495,-8.57009 -3.2235,-10.83498 -16.716,-18.25488 C 91.711592,658.14295 67.438992,633.31018 58.446892,605.30488 l -3.17655,-9.8931 -2.42788,1.59081 c -4.54994,2.98123 -17.21309,-0.76003 -14.33015,-4.23377 0.68814,-0.82916 0.76794,-1.4331 0.18937,-1.4331 -7.19053,0 -0.63907,8.70262 8.38706,11.14094 5.06074,1.36712 6.25954,2.59743 3.26269,3.34848 -2.77281,0.69491 -10.44075,-1.76868 -13.1575,-4.22731 -1.80088,-1.62976 -1.83938,-1.5055 -1.1702,3.77633 0.86259,6.80842 2.26057,8.42661 9.58808,11.09836 7.02278,2.56063 10.32843,5.65696 13.36974,12.52317 11.28364,25.47447 40.61274,52.6944 75.461338,70.03473 13.8116,6.8725 14.7486,6.81957 13.7299,-0.77562 z m 648.284,1.08092 c 0.6471,-1.20903 0.7263,-2.6921 0.2003,-3.75 -0.4786,-0.9625 -1.4669,-4.45 -2.1962,-7.75 -1.825,-8.25743 -2.7256,-8.74491 -3.4434,-1.86382 -0.3365,3.2251 -0.8407,8.00132 -1.1207,10.61382 -0.5759,5.37518 4.1049,7.3374 6.56,2.75 z m -624.4731,-2.66975 c 1.3399,-1.33995 1.5565,-2.87067 1.0964,-7.75 -0.3153,-3.34414 -0.8328,-17.10525 -1.1499,-30.58025 -0.707,-30.03908 -0.4705,-28.6727 -4.9458,-28.57605 l -3.5217,0.0761 0.034,6 c 0.1445,25.72398 1.9315,60.86606 3.1338,61.62831 2.0045,1.27087 3.5088,1.04663 5.3535,-0.79806 z m 642.1128,-4.72829 13.1397,-6.39653 1.9692,-5.35272 c 2.1151,-5.7497 3.5083,-12.85271 2.5209,-12.85271 -0.3325,0 -6.3828,2.475 -13.445,5.5 -13.8426,5.92929 -16.8245,6.58021 -16.8245,3.6726 0,-3.55637 2.9601,-46.73158 3.4741,-50.6726 0.599,-4.5927 3.5242,-54.13342 3.5252,-59.70321 6e-4,-3.33267 -5.5111,-7.79679 -9.6264,-7.79679 -0.2051,0 -0.3797,3.0375 -0.3881,6.75 -0.014,6.16162 -1.1145,24.29966 -3.929,64.75 -3.1573,45.37633 -3.1845,46.5672 -1.106,48.35302 1.9998,1.71816 6.0502,13.60282 6.0502,17.75232 0,3.19752 -0.3476,3.29257 14.6397,-4.00338 z m -59.2244,2.14804 c 0.4682,-3.00762 2.3158,-42.17117 2.7481,-58.25 0.1035,-3.85 -0.1234,-6.92161 -0.5043,-6.8258 -0.3808,0.0958 -2.0349,0.46907 -3.6757,0.82946 -1.8477,0.40581 -2.9898,1.29118 -3.0002,2.3258 -0.01,0.91879 -0.6787,14.27054 -1.4876,29.67054 -2.0325,38.69069 -2.2086,35.5 1.9591,35.5 3.1271,0 3.5026,-0.30813 3.9606,-3.25 z m 32.0146,1 c 0.2573,-1.2375 0.9524,-9.45 1.5444,-18.25 2.2962,-34.12792 4.0981,-61.96123 5.5028,-85 0.8048,-13.2 1.6873,-26.7 1.961,-30 0.4151,-5.00441 0.1645,-6.39991 -1.5101,-8.41008 -4.0965,-4.91717 -4.1767,-4.26783 -8.5114,68.91008 -1.4173,23.925 -3.112,49.92891 -3.766,57.78648 -0.6541,7.85756 -0.8207,14.94506 -0.3702,15.75 1.2849,2.29613 4.6141,1.78768 5.1495,-0.78648 z m 59.266,-18.51672 c 5.1885,-8.72079 7.7985,-14.5419 11.474,-25.59075 2.6979,-8.1103 2.2914,-7.93604 -7.3383,3.14566 l -8.5038,9.78607 -0.6707,8.46287 c -0.3689,4.65458 -0.9451,9.47537 -1.2805,10.71287 -1.2361,4.56057 1.2607,1.98578 6.3193,-6.51672 z m -77.0419,-4.44006 c 10.8459,-5.15785 9.9208,-3.63922 10.7314,-17.61613 0.3725,-6.4224 0.8883,-13.92709 1.1461,-16.67709 0.2579,-2.75 1.1469,-17.6 1.9757,-33 2.4573,-45.6642 2.6069,-47.57183 4.05,-51.6621 0.761,-2.15685 2.0542,-4.5922 2.8739,-5.41187 0.8197,-0.81968 1.7617,-3.16336 2.0934,-5.20818 1.5908,-9.8061 7.0688,-15.26317 16.4755,-16.41242 2.2518,-0.27511 2.5731,-0.89368 3.2359,-6.2305 0.7684,-6.18661 0.8195,-6.00624 -4.4681,-15.7593 -11.6469,-21.48282 9.8169,-45.11603 30.2322,-33.28779 8.916,5.16578 10.8085,26.91584 3.0394,34.93151 -7.4425,7.67871 -11.3532,34.54065 -5.0285,34.54065 1.0393,0 2.3304,0.7875 2.8691,1.75 0.5386,0.9625 1.236,1.6375 1.5497,1.5 1.6134,-0.70723 2.6728,0.0476 4.1931,2.98746 1.6873,3.26294 1.498,47.30152 -0.2301,53.51254 -1.6188,5.8185 1.377,1.34987 3.3641,-5.01794 3.7934,-12.15605 4.2922,-17.16448 4.7535,-47.73206 1.5572,-103.18125 2.14,-123.26027 4.051,-139.56329 0.7778,-6.63482 1.6693,-16.30982 1.9812,-21.5 0.312,-5.19019 0.7978,-10.22421 1.0797,-11.18671 0.8526,-2.91084 -0.9255,-2.00652 -6.6602,3.38744 -19.7353,18.56256 -50.7603,35.96293 -79.212,44.42598 -4.5968,1.36733 -5.7633,2.13416 -5.8163,3.82347 -0.036,1.16221 -0.2257,5.26311 -0.4205,9.11311 -0.6027,11.90671 -1.5383,37.60995 -1.6639,45.70791 l -0.1195,7.7079 4.7298,4.59681 c 3.9285,3.8181 4.6222,5.02523 4.095,7.12588 -0.3654,1.45605 -0.242,2.28634 0.291,1.95694 3.8365,-2.37109 5.3611,62.0179 2.1762,91.90456 -1.6333,15.32552 -3.6198,21.08957 -9.2991,26.98174 l -4.8127,4.99308 -0.9659,22.51259 c -0.5312,12.38193 -1.1945,23.52509 -1.474,24.76259 -0.6456,2.85847 -1.182,2.97274 9.1839,-1.95678 z m -608.313,1.58178 c -0.087,-0.48125 -0.4314,-7.625 -0.7644,-15.875 -1.1622,-28.79339 -1.3264,-29.86501 -5.238,-34.17819 -10.1525,-11.19502 -14.4462,-39.66551 -13.0421,-86.47988 0.5199,-17.33681 1.1311,-23.7237 3.2381,-33.84193 0.1718,-0.825 0.3468,-2.2862 0.3889,-3.24712 0.042,-0.96091 1.7028,-3.54725 3.6905,-5.74741 l 3.6141,-4.00029 -0.6863,-31.75259 c -0.806,-37.28847 -0.35,-34.6705 -6.3205,-36.28707 -24.1399,-6.53608 -56.803098,-25.38219 -73.962998,-42.67538 -5.3525,-5.39408 -10.7233,-9.01137 -7.4834,-5.04014 0.5609,0.6875 1.3162,6.65 1.6785,13.25 0.3623,6.6 1.0654,16.05 1.5624,21 1.5071,15.0107 3.4957,75.62892 4.5433,138.5 0.7543,45.26547 3.1988,55.77459 17.2877,74.32208 2.8502,3.75214 4.9241,7.23964 4.6087,7.75 -0.3155,0.51035 0.081,0.92792 0.8819,0.92792 0.8005,0 2.9364,1.6875 4.7465,3.75 7.296498,8.31387 23.939298,20.51218 42.916098,31.45521 5.225,3.01302 11.075,6.40989 13,7.54862 3.4699,2.05263 5.6471,2.30584 5.341,0.62117 z m 670.3089,-10.92154 c 5.233,-3.99143 4.1562,-5.47694 -4.2884,-5.91582 -12.5994,-0.65481 -17.4869,-5.17978 -18.4016,-17.03666 -0.4546,-5.89256 -0.6408,-6.44685 -1.176,-3.50098 -0.8249,4.54123 -2.6897,37.29728 -2.1724,38.16037 0.5907,0.98557 22.0429,-8.65935 26.0384,-11.70691 z m -368.3678,10.13157 c 4.8439,-2.12996 10.1378,-6.95419 6.7179,-6.12191 -6.4779,1.5765 -16.623,1.70281 -20.75,0.25834 -5.1401,-1.79906 -5.4493,-0.73799 -0.815,2.79674 5.6577,4.31539 9.9782,5.20781 14.8471,3.06683 z m 2.8046,-9.27173 c 3.5181,-3.51809 5.2632,-108.53167 1.7717,-106.61673 -7.4221,4.0708 -13.0512,3.82905 -18.3078,-0.78626 l -3.4066,-2.99105 -0.4477,9.29037 c -1.2649,26.24563 0.6335,91.95252 2.8592,98.96524 1.0533,3.31879 14.6877,4.98189 17.5312,2.13843 z m -21.4959,-7.0633 c -4.9409,-41.49787 -2.8331,-116.32784 3.322,-117.93745 1.9293,-0.50451 3.4659,-4.96046 2.019,-5.8547 -2.2567,-1.39474 -8.8225,2.81177 -10.3509,6.63154 -4.6253,11.5599 -4.974,93.48279 -0.4827,113.41061 2.3151,10.27192 6.6189,13.21034 5.4926,3.75 z m 29.8114,4.205 c 4.5643,-4.56435 6.9866,-30.07939 6.2614,-65.955 -0.9164,-45.33783 -2.478,-55.58626 -9.0836,-59.61432 -5.9796,-3.64641 -8.6359,-0.18075 -3.2216,4.20343 3.5671,2.88848 6.0359,98.49148 3.0126,116.66089 -1.107,6.65299 -0.2489,7.98503 3.0312,4.705 z m 375.8408,-11.36042 c 5.1111,-5.99798 11.4421,-14.73428 14.0689,-19.414 5.6529,-10.07102 5.4616,-9.89089 14.269,-13.43266 7.4701,-3.00405 8.8153,-4.62 9.9969,-12.00905 l 0.6679,-4.17683 -4.9314,2.379 c -6.2095,2.99556 -14.7872,4.47985 -14.1101,2.44163 0.2526,-0.76047 1.7725,-1.77501 3.3775,-2.25453 7.0046,-2.09267 11.0858,-3.79065 13.4034,-5.57648 3.5734,-2.75353 1.8839,-3.53562 -2.6458,-1.22475 -6.2033,3.16468 -15.1566,2.46897 -15.4205,-1.19823 -0.1206,-1.6762 -2.8211,4.57691 -2.8737,6.65409 -0.111,4.38725 -11.5987,24.54988 -19.5681,34.34496 -1.3996,1.72026 -2.7133,3.97026 -2.9192,5 -1.1479,5.73851 -2.915,11.47503 -3.6808,11.94829 -1.2024,0.74311 -1.1142,7.42398 0.098,7.42398 0.5363,0 5.1569,-4.90744 10.268,-10.90542 z m -14.2433,2.67532 c 2.0849,-2.2378 2.3657,-3.04636 3.4966,-10.06595 0.6981,-4.3331 -4.308,-10.70395 -8.411,-10.70395 -4.7738,0 -9.5222,6.23661 -9.5552,12.54978 -0.034,6.59047 1.8721,8.52177 2.7954,2.8318 1.0945,-6.74436 6.9523,-10.90883 11.7402,-8.3464 2.9629,1.58566 2.2993,2.98782 -1.0928,2.30939 -3.4641,-0.69281 -6.1098,1.1576 -7.9267,5.54385 -2.7718,6.69188 4.0337,11.16235 8.9535,5.88148 z m -17.8264,-8.14986 c 0.8933,-14.03032 12.6381,-19.87289 21.9991,-10.94372 l 2.6723,2.54908 5.0644,-6.8627 c 17.7796,-24.09305 21.9385,-50.70666 11.1234,-71.182 -2.1683,-4.1051 -2.2505,-3.95296 -2.065,3.8193 0.3636,15.23594 -4.0187,34.7733 -10.4303,46.5 -3.7246,6.81243 -6.0499,13.21519 -5.6876,15.66141 0.5541,3.74062 -4.2831,3.23184 -5.2324,-0.55035 -1.4259,-5.68123 -8.8081,-5.70742 -15.412,-0.0547 -7.6745,6.56905 -10.428,17.28578 -6.2162,24.19363 2.8652,4.69925 3.7268,4.05479 4.1843,-3.12996 z M 51.522532,632.30054 c 3.4138,-1.82702 2.52433,-6.49175 -1.79788,-9.42877 -5.41683,-3.68083 -6.26786,-3.35398 -6.26786,2.40725 0,6.51985 3.42765,9.50374 8.06574,7.02152 z m 827.959058,-2.52992 c 0.5363,-1.4108 0.9752,-4.3124 0.9752,-6.44798 v -3.88288 l -3.0156,1.05125 c -4.6856,1.63339 -7.9663,8.52952 -5.3177,11.17804 1.792,1.79202 6.4077,0.60113 7.3581,-1.89843 z m -67.085,-3.02745 c 4.8987,-9.23425 16.6466,-13.9896 22.7405,-9.205 3.1474,2.47119 4.8374,-9.55049 5.8977,-41.95245 0.5109,-15.61169 0.3938,-21.25 -0.4413,-21.25 -0.6252,0 -1.1367,0.41066 -1.1367,0.91258 0,1.86428 -19.0106,8.07199 -24.75,8.08184 -2.9157,0.005 -3.25,0.30287 -3.25,2.89563 0,2.75795 -2.5281,47.2921 -3.3697,59.35995 -0.4971,7.12718 0.9381,7.51263 4.3095,1.15745 z m -637.8741,-1.44263 c 3.434,-1.83778 2.115,-2.67655 -7.8157,-4.97013 -5.3625,-1.23852 -10.3753,-2.49124 -11.1395,-2.78381 -2.4037,-0.92017 0.048,2.34924 4.277,5.70486 4.1454,3.28889 10.6619,4.19858 14.6782,2.04908 z m 585.6844,-1.89877 c 7.9587,-5.76522 7.3175,-5.98511 -8.4995,-2.91501 -11.704,2.27178 -12.1808,2.58299 -6.9288,4.52288 5.8136,2.14736 10.9889,1.60801 15.4283,-1.60787 z m -569.6014,-5.38446 c 7.912,-4.9139 5.7392,-116.67807 -2.3181,-119.23535 -5.8271,-1.84947 -23.0167,13.15378 -23.9515,20.90519 -1.9081,15.82155 -0.2442,88.92783 2.1683,95.27335 0.6307,1.6588 2.1559,2.47302 6.1458,3.28094 2.9187,0.59103 6.2068,1.2654 7.3068,1.49862 2.7899,0.59148 8.3782,-0.31259 10.6487,-1.72275 z m 555.4916,0.27559 c 6.0073,-1.15826 6.1527,-1.26274 6.7108,-4.82055 1.4606,-9.31072 2.8557,-54.80348 2.3132,-75.43065 l -0.5995,-22.79402 -5.6871,-5.20598 c -22.4769,-20.57535 -25.2766,-13.14214 -24.103,63.99306 0.6353,41.7564 0.9912,43.5492 8.9815,45.2442 3.5088,0.74433 3.3398,0.75779 12.3841,-0.98606 z m -583.0294,-5.15294 c -1.6711,-8.35527 -2.8024,-41.09876 -2.3686,-68.55424 l 0.478,-30.25 h -2.7206 c -1.4963,0 -4.4112,-1.14724 -6.4774,-2.54943 -7.343,-4.98308 -9.1453,45.62998 -3.1033,87.14496 1.7919,12.31213 2.976,14.52154 8.581,16.01172 6.3852,1.6976 6.3155,1.72001 5.6109,-1.80301 z m 601.3214,1.22759 c 7.1527,-1.8806 8.5677,-12.64875 8.5677,-65.19894 0,-42.63865 0.2258,-40.94376 -4.9833,-37.40876 -2.0448,1.38764 -5.2744,2.815 -7.1769,3.1719 l -3.459,0.64892 0.6763,25.12753 c 0.6148,22.84082 -0.5034,59.2528 -2.1918,71.37516 l -0.5917,4.24764 3.3632,-0.66198 c 1.8498,-0.36408 4.4577,-0.94974 5.7955,-1.30147 z M 49.177482,594.52951 c 0.9592,-0.60945 0.90942,-7.62167 -0.23238,-32.73469 -0.79919,-17.57751 -1.461,-32.7466 -1.47069,-33.7091 -0.0135,-1.34417 -0.865,-1.75 -3.67163,-1.75 h -3.654 l 0.63753,13.75 c 0.35064,7.5625 0.93074,22.525 1.28911,33.25 0.7249,21.69426 1.70606,24.62224 7.10206,21.19379 z m 829.658808,0.001 c 0.2737,-0.44278 0.9789,-10.68028 1.5671,-22.75 0.5882,-12.06971 1.355,-27.37456 1.704,-34.01077 l 0.6345,-12.06584 -3.6425,0.42524 c -2.5296,0.29532 -3.6466,0.92654 -3.6558,2.06585 -0.01,0.90232 -0.718,15.14059 -1.5794,31.64059 -1.8534,35.49998 -1.8421,33.60787 -0.2075,34.64471 1.6707,1.05971 4.5385,1.08752 5.1796,0.0502 z M 54.956792,592.33572 c 0.33992,-0.55 0.14147,-1 -0.44098,-1 -0.58246,0 -1.05902,0.45 -1.05902,1 0,0.55 0.19844,1 0.44098,1 0.24254,0 0.7191,-0.45 1.05902,-1 z m 830.499998,-0.0153 c 1.3054,-0.85694 1.3116,-1.10586 0.048,-1.91871 -1.7428,-1.12089 -3.0477,-0.48162 -3.0477,1.49303 0,1.67695 0.8995,1.80458 3,0.42567 z M 57.430392,567.34134 c 1.49737,-5.44876 4.42011,-11.32832 7.9207,-15.93375 2.5533,-3.3592 2.6057,-3.74617 2.6057,-19.24662 0,-15.51668 -0.3959,-17.75688 -2.4571,-13.90534 -1.0867,2.03045 -5.63432,3.9089 -10.41176,4.3007 -4.01557,0.32932 -3.99001,0.07 -2.71544,27.55174 0.63076,13.60021 1.17626,26.75265 1.21223,29.22765 0.12092,8.32109 1.30342,8.62244 1.96196,0.5 0.35673,-4.4 1.2044,-10.02247 1.88371,-12.49438 z m 812.831998,-3.25562 c 0.6708,-12.7875 1.2139,-27.1875 1.207,-32 l -0.013,-8.75 -3.75,-0.004 c -2.0625,-0.002 -5.2234,-0.90205 -7.0242,-2 -1.8008,-1.09794 -3.4883,-1.99626 -3.75,-1.99626 -1.4557,0 -0.3976,29.81997 1.1022,31.06474 4.7738,3.9619 9.422,18.58699 9.422,29.64536 0,15.53746 1.644,6.18553 2.8056,-15.9601 z m -42.955,-6.84096 c 11.2735,-3.6442 15.3919,-7.32774 11.6298,-10.4018 -3.3178,-2.711 -6.4804,-3.25077 -6.4804,-1.10602 0,6.55596 -16.9185,7.70903 -30.4087,2.07247 -5.4987,-2.29749 -7.6951,0.0611 -4.0694,4.36992 6.3078,7.4964 16.4105,9.24126 29.3287,5.06543 z m -363.3028,-2.55506 c 2.4939,-2.69104 3.7785,-12.2917 1.4522,-10.85398 -0.55,0.33992 -1,1.19424 -1,1.8985 0,3.87456 -10.0642,4.71424 -13.3973,1.11776 -3.6364,-3.92372 -5.2001,0.1161 -1.9594,5.06205 3.7277,5.68918 10.9566,7.03543 14.9045,2.77567 z m 361.7679,-7.50368 c 3.4757,-1.82945 3.6529,-2.63263 3.669,-16.63548 0.015,-13.2169 0,-13.27937 -2.0991,-12.15361 -1.2525,0.67033 -3.8552,0.87051 -6.3852,0.49111 l -4.271,-0.64046 -0.723,13.96432 c -0.8661,16.72801 1.0167,19.60219 9.8093,14.97412 z M 459.95679,509.9039 v -35.93182 l -3.5,0.007 -3.5,0.007 0.3339,35.40609 c 0.3645,38.64208 0.2061,37.1911 4.0105,36.75084 l 2.6556,-0.30729 z m 351.1876,19.7861 c -0.9338,-0.93386 -11.9929,4.18204 -13.2771,6.14196 -3.3502,5.11305 -2.544,8.27096 1.9869,7.78326 2.3921,-0.25748 5.5618,0.18335 7.6026,1.05734 l 3.5,1.49893 0.2925,-8.0421 c 0.1608,-4.42316 0.1136,-8.22088 -0.1049,-8.43939 z M 47.956792,521.9461 c 0,-0.4893 -1.8,-1.43427 -4,-2.09994 -2.2,-0.66568 -5.70672,-2.23363 -7.7927,-3.48435 -4.24199,-2.54341 -5.42907,-2.24325 -3.7245,0.94177 2.46428,4.60455 15.5172,8.50979 15.5172,4.64252 z m 834.071098,0.26739 c 4.1315,-1.04031 9.4289,-5.5051 9.4289,-7.94688 0,-0.50361 -2.8125,0.57511 -6.25,2.39714 -3.4375,1.82204 -7.2625,3.57648 -8.5,3.89876 -2.5454,0.66289 -3.0726,2.77321 -0.6928,2.77321 0.8564,0 3.5627,-0.505 6.0139,-1.12223 z m -4.9992,-5.50273 c 9.5749,-3.15714 10.5745,-6.9422 12.4801,-47.25487 2.349,-49.69354 1.0296,-55.83171 -13.4066,-62.37017 -15.5933,-7.06253 -16.0249,-5.71619 -17.7122,55.25 -1.5978,57.73589 -0.5779,60.71133 18.6387,54.37504 z m -814.059078,-1.97451 2.80488,-2.59946 -0.6642,-39.15054 c -1.25067,-73.71214 -2.31763,-76.4003 -25.1535,-63.37299 -8.19946,4.6776 -10.16902,62.7217 -3.3284,98.08995 1.82074,9.41382 18.86264,13.96396 26.34122,7.03304 z m 769.237178,-3.05582 c 3.9225,-4.43894 3.7097,-4.81487 -1.8737,-3.3114 -4.529,1.21954 -12.7874,0.61982 -16.1349,-1.17172 -2.8929,-1.54821 -2.9453,-0.62599 -0.1947,3.42189 4.5641,6.71678 12.7825,7.1959 18.2033,1.06123 z m -662.1998,-6.3902 c 2.9767,-2.69564 7.2206,-6.09796 9.4309,-7.56072 5.1917,-3.43566 5.0925,-3.8484 -1.5186,-6.32194 -9.0754,-3.39553 -10.9067,-2.36225 -5.4625,3.082 4.0021,4.00213 3.9381,4.15204 -3.1297,7.32386 -7.3323,3.29054 -13.2091,3.05704 -16.2059,-0.64387 -1.8122,-2.23792 -1.8893,-2.24672 -3.2602,-0.37187 -1.907,2.60792 -1.8171,3.04441 1.3602,6.60037 5.5615,6.22439 10.1541,5.70908 18.7858,-2.10783 z m 592.5035,6.0471 c 7.4037,-2.05675 10.1779,-8.12255 5.9463,-13.00161 -1.1,-1.26831 -2,-2.68717 -2,-3.15301 0,-0.46584 -0.4217,-0.84699 -0.9371,-0.84699 -0.5154,0 -0.6887,1.53075 -0.3851,3.40167 1.0867,6.69659 -8.8195,8.76402 -17.1939,3.58837 -4.0733,-2.51743 -5.1839,-5.74864 -2.1258,-6.18466 1.4969,-0.21342 2.2372,-1.13348 2.4583,-3.05538 0.3794,-3.2971 -0.1478,-3.34622 -7.2789,-0.67815 -5.1024,1.90904 -7.6108,4.92815 -4.0945,4.92815 0.7937,0 4.0562,2.37817 7.25,5.28483 12.572,11.44151 12.4275,11.36505 18.3607,9.71678 z M 32.994472,506.08572 c -2.86015,-20.85596 -4.15647,-58.64318 -2.68442,-78.25 l 1.0511,-14 -2.42188,-2.44697 c -7.95071,-8.03308 -6.19728,88.36767 1.7952,98.69697 2.11102,2.72824 2.97339,1.20192 2.26,-4 z m 858.423018,4.27104 c 5.2677,-2.81919 9.5812,-54.43743 7.1796,-85.91665 -1.2358,-16.19974 -1.1613,-15.97587 -4.5739,-13.73985 -4.4735,2.93117 -5.2062,0.42192 -0.9559,-3.27369 3.7421,-3.2537 1.7659,-4.26512 -4.3991,-2.25147 l -5.2886,1.72739 2.8849,2.13296 c 7.5788,5.60323 9.6388,57.39081 3.7611,94.55027 -0.6742,4.2625 -1.0484,7.75 -0.8316,7.75 0.2169,0 1.2174,-0.44053 2.2235,-0.97896 z m -55.9944,-6.50359 c 2.8109,-1.4536 6.0337,-6.48239 6.0337,-9.41493 0,-0.52895 -1.9125,0.0959 -4.25,1.38861 -7.9334,4.38736 -20.6475,3.89827 -28.2559,-1.08696 -2.8861,-1.89103 -3.0035,-1.55921 -1.0788,3.04746 3.086,7.38578 18.455,10.76953 27.551,6.06582 z m -670.7248,-4.24905 c 3.1578,-0.97262 5.7453,-2.1059 5.75,-2.5184 0.013,-1.11837 -2.7769,-0.9062 -3.5016,0.26631 -1.7509,2.83305 -2.2744,-2.29993 -2.8801,-28.24189 -0.3631,-15.55093 -0.9338,-32.23551 -1.2681,-37.07685 l -0.6079,-8.80243 -3.6169,0.30243 c -3.1587,0.26412 -3.598,0.61912 -3.4679,2.80243 0.082,1.375 0.4578,18.4676 0.8353,37.98356 0.3775,19.51595 0.8995,35.82845 1.1601,36.25 0.6677,1.08046 1.1576,1.01822 7.5971,-0.96516 z m 595.3732,0.54608 c 0.4029,-0.65204 0.6412,-3.46454 0.5294,-6.25 -0.1118,-2.78547 0.4811,-19.23948 1.3175,-36.56448 0.8365,-17.325 1.5248,-32.0625 1.5296,-32.75 0.01,-0.79313 -1.4532,-1.25 -3.9912,-1.25 -3.4799,0 -4.0007,0.29258 -4.0054,2.25 -0.01,1.92364 -2.7676,64.54406 -3.0996,70.25 -0.2092,3.59499 0.081,4.34703 1.855,4.81067 3.2594,0.85178 5.1293,0.69357 5.8647,-0.49619 z m 71.0504,-5.30768 c 5.7659,-1.71227 10.3349,-5.46336 10.3349,-8.48473 0,-1.98199 -0.1323,-2.005 -3.0006,-0.52175 -7.4304,3.8424 -21.718,3.79312 -27.7494,-0.0957 -2.1557,-1.38993 -2.25,-1.32501 -2.25,1.54927 0,6.59996 12.1925,10.66296 22.6651,7.55291 z m 4.3292,-11.50389 c 5.3629,-2.73595 5.2087,-5.67172 -0.4429,-8.43014 -10.4523,-5.10158 -31.6453,1.33457 -23.5974,7.16636 6.2576,4.5345 16.5668,5.07645 24.0403,1.26378 z m -371.9943,-6.00291 c 0,-0.55 -0.1984,-1 -0.441,-1 -0.2425,0 -0.7191,0.45 -1.059,1 -0.3399,0.55 -0.1415,1 0.441,1 0.5824,0 1.059,-0.45 1.059,-1 z m -32.5484,-7.41534 c 1.8631,-0.77844 3.8925,-2.35916 4.5099,-3.51271 0.9239,-1.72628 1.4785,-1.90685 3.1345,-1.02058 8.6593,4.63433 24.0276,5.29202 33.404,1.42953 3.3,-1.3594 6.06,-2.47372 6.1334,-2.47627 0.073,-0.003 0.3703,0.90139 0.6599,2.00874 1.6431,6.28359 47.12,6.28813 92.2067,0.009 3.85,-0.53617 11.725,-1.4578 17.5,-2.04808 30.9474,-3.16322 79.6441,-12.48228 113,-21.62474 37.5389,-10.28897 42.9702,-14.48448 43.8207,-33.84976 l 0.3952,-9 h 8.7148 c 11.9249,0 17.799,-2.99368 16.3966,-8.35638 -0.533,-2.03838 -0.55,-2.03892 -3.1816,-0.10251 -3.4844,2.56393 -13.4118,4.422 -16.0584,3.00559 -2.6067,-1.39503 -3.4059,-1.31937 -2.798,0.26489 0.3556,0.92662 -0.2734,1.20514 -2.143,0.9489 -1.7995,-0.24663 -4.4062,0.80789 -8.1463,3.2956 -7.8573,5.22623 -11.2875,6.82206 -22,10.23492 -53.0333,16.89578 -142.4573,30.63587 -219.8618,33.78197 l -16.3617,0.66502 3.0577,3.05778 3.0578,3.05777 26.304,-1.22792 c 91.2288,-4.25874 211.9541,-26.78801 223.7235,-41.75039 2.4862,-3.16066 3.8963,-2.4611 2.2633,1.12283 -7.2546,15.92211 -140.0762,40.80195 -235.8111,44.17161 l -18.1284,0.63808 -4.9159,-4.59829 -4.9159,-4.59829 -2.7435,3.43822 c -7.1218,8.92556 -20.0658,9.55085 -27.8779,1.3467 -4.0951,-4.30029 -8.7901,-5.39584 -8.7901,-2.05088 0,14.49695 -147.519,-1.953 -227.8648,-25.40937 -22.8702,-6.67679 -29.6166,-10.42434 -30.6812,-17.04306 l -0.4653,-2.89258 3.1463,3.80443 c 14.8599,17.96815 159.0026,44.20563 245.4264,44.67358 3.8325,0.0208 8.4386,-2.64113 8.4386,-4.87661 0,-0.45138 -6.4125,-1.12843 -14.25,-1.50456 -107.4341,-5.15586 -215.8465,-25.87851 -242.7005,-46.39136 -3.6878,-2.81694 -4.6107,-3.16552 -4.8728,-1.84033 -0.3798,1.92049 -3.0236,2.19385 -3.7221,0.38485 -0.3174,-0.82174 -2.8444,-1.27541 -7.3758,-1.32416 -4.6607,-0.0501 -7.7215,-0.61691 -9.4508,-1.75 -3.5293,-2.31251 -4.628,-2.10373 -4.628,0.87948 0,5.11856 15.9201,9.78241 23.8509,6.98722 1.9591,-0.6905 2.2924,-0.52513 2,0.99254 -0.7839,4.06828 -14.1971,3.76009 -23.077,-0.53024 -4.7265,-2.2836 -5.3091,-1.46681 -4.5023,6.31275 0.8218,7.92481 2.3882,10.51284 7.1413,11.79894 8.2763,2.23936 21.4125,-0.80205 19.948,-4.61852 -0.3162,-0.8239 -0.1892,-1.49739 0.2821,-1.49662 0.4714,7.6e-4 1.6377,2.65812 2.5918,5.90525 3.2864,11.18389 7.4287,13.88 33.0775,21.52912 43.1682,12.87386 107.8643,24.09168 167.1877,28.98907 35.6076,2.93955 50.9319,3.25721 55.9516,1.15983 z m 33.6195,-21.12069 c 5.3166,-2.69413 8.1447,-6.64818 6.1685,-8.6244 -0.8083,-0.80824 -1.7391,-0.37042 -3.4559,1.6255 -4.176,4.85488 -17.7965,4.41789 -19.1122,-0.61318 -0.6526,-2.49569 -3.0567,-1.96597 -3.4631,0.76305 -1.0098,6.78202 11.4895,11.09204 19.8627,6.84903 z m -21.8211,-12.4443 4.75,-2.11326 v -7.87648 c 0,-19.57549 18.5066,-20.4859 19.7241,-0.97031 l 0.5301,8.49591 5.8682,2.757 5.8682,2.75701 23.2547,-1.03651 c 12.7901,-0.57008 25.7297,-1.25734 28.7547,-1.52724 3.025,-0.2699 11.35,-0.975 18.5,-1.56689 39.8766,-3.30105 102.0713,-13.06645 134,-21.03979 34.306,-8.56701 48.2423,-14.20941 61.2948,-24.81647 l 4.2052,-3.41737 v -7.22185 c 0,-8.39664 1.1526,-10.29465 7.7868,-12.82298 7.8383,-2.98719 12.2132,1.02167 12.2132,11.19137 0,8.70602 0.6558,8.86545 13.5188,3.28638 42.2518,-18.32592 72.3491,-43.52634 80.4048,-67.32266 4.0936,-12.09256 3.791,-31.20816 -0.3377,-21.32689 -22.9121,54.83636 -181.0442,106.19807 -352.5859,114.52079 -197.1629,9.5658 -405.0282,-41.34941 -450.166398,-110.2652 l -4.06362,-6.20423 0.47834,9 c 1.55976,29.34752 29.14858,57.97356 78.233978,81.17534 12.4057,5.864 12.4791,5.84637 12.5024,-3.00226 0.049,-18.65967 19.7215,-16.46184 20.809,2.3248 0.4594,7.9347 0.5259,8.10901 3.5872,9.39839 1.7155,0.72256 5.1441,3.0224 7.6191,5.11074 20.5674,17.35426 124.5674,38.3399 215.5,43.48467 38.5143,2.17906 40.7705,2.13313 47.75,-0.97201 z m 19.5,0.18823 c 1.3415,-1.70658 1.7792,-15.12397 0.5,-15.32684 -1.1733,-0.18607 -4.4447,-0.19961 -8.0421,-0.0333 l -3.292,0.15224 0.292,7.72391 c 0.3691,9.76026 5.7499,13.58021 10.5421,7.48399 z m -0.7723,-19.7348 c -1.4248,-1.71672 -7.8371,-1.692 -6.9777,0.0269 0.275,0.55 1.9625,0.85231 3.75,0.6718 2.102,-0.21227 3.25,0.11154 3.25,0.91666 0,0.68468 0.2891,0.95575 0.6425,0.60237 0.3534,-0.35337 0.054,-1.35135 -0.6648,-2.21773 z m 306.3345,1.59831 c 1.4157,-0.53824 2.9143,-2.28246 3.5651,-4.14923 1.2488,-3.58236 1.5508,-16.30826 0.3727,-15.70447 -7.0416,3.60884 -10.9609,4.83409 -16.3971,5.12613 l -6.3529,0.34129 -0.3158,4.32722 c -0.4546,6.22923 0.4351,8.68209 3.5638,9.82469 3.5471,1.29544 12.4219,1.42908 15.5642,0.23437 z m 15.1878,-3.0416 c 46.9172,-16.56001 93.5105,-57.99183 95.9037,-85.27981 0.8649,-9.86168 0.5202,-9.75418 -7.9037,2.46522 -18.0387,26.16612 -52.263,50.76413 -86.5,62.17006 l -7.5,2.4986 -0.6241,8.80806 c -0.3432,4.84443 -0.9839,9.67368 -1.4236,10.73167 -0.6729,1.61896 -0.4949,1.80066 1.1241,1.14731 1.058,-0.42697 4.1736,-1.57047 6.9236,-2.54111 z m -640.5345,-1.09426 c -0.6581,-1.22966 -1.2176,-5.50075 -1.2433,-9.49132 l -0.047,-7.25558 -7.0877,-2.74676 c -33.9665,-13.16327 -64.258298,-36.08847 -81.087588,-61.36806 -8.20621,-12.32668 -8.95302,-12.5114 -8.23508,-2.03691 1.80174,26.28695 48.25507,68.20881 93.069668,83.99082 5.8914,2.07473 6.277,1.98378 4.6308,-1.09219 z M 35.991972,408.72071 c 2.6455,-1.7334 3.38169,-3.67406 1.05508,-2.78125 -1.67775,0.64381 -7.19372,-2.02519 -7.92097,-3.8327 -0.28127,-0.69907 -0.54692,0.0435 -0.59034,1.65022 -0.14514,5.37029 3.31759,7.67547 7.45623,4.96373 z m 11.19279,-6.78901 c 2.18868,-0.77222 6.07068,-1.33472 8.62666,-1.25 5.14209,0.17042 5.44647,-0.16753 2.89537,-3.21472 -3.13844,-3.74875 -9.24663,-5.65708 -9.26531,-2.89468 -0.036,5.31391 -9.75768,7.92395 -15.50009,4.16138 -2.61617,-1.71419 -2.69128,-1.70968 -2.335,0.14032 0.79557,4.13111 8.33933,5.61178 15.57837,3.0577 z m 463.272028,0.4007 c 170.6499,-8.61298 320.7375,-56.19091 349.2695,-110.7188 43.2801,-82.71317 -83.3413,-150.47462 -308.7695,-165.23799 -8.8,-0.57631 -18.925,-1.26512 -22.5,-1.53068 -40.0906,-2.97803 -146.4489,-1.04417 -191.6185,3.48411 C 119.49279,150.11801 17.943302,210.54467 61.460622,292.19152 96.966892,358.80813 314.67799,412.21368 510.45679,402.3324 Z m -99,-9.02522 C 190.09109,380.51005 25.602942,311.23764 63.075112,246.58999 c 28.85308,-49.7779 145.134278,-86.86371 311.881678,-99.46914 26.1147,-1.97416 138.0292,-1.63804 168.972,0.50749 75.6836,5.24779 132.4461,14.5024 189.028,30.81926 219.6365,63.33795 151.5026,164.58945 -139.5,207.30628 -11.7342,1.7225 -44.6788,4.93681 -67.5,6.58579 -19.4353,1.40432 -95.7842,2.04946 -114.5,0.96751 z m 116.5,-5.4413 c 70.8568,-4.90537 137.2512,-16.19336 197.7903,-33.62717 7.5846,-2.18419 14.3346,-3.65875 15,-3.2768 0.6653,0.38195 0.8752,0.32527 0.4663,-0.12597 -0.9579,-1.05712 21.2668,-8.65683 23.2129,-7.93761 0.8083,0.2987 1.1477,0.22126 0.7544,-0.17209 -0.3934,-0.39335 5.6953,-3.46353 13.5304,-6.82262 133.9522,-57.42839 94.3679,-124.12969 -98.8103,-166.49991 -95.3213,-20.90706 -253.3691,-25.79034 -371.444,-11.47671 -151.5523,18.37192 -255.597628,66.87407 -245.517488,114.45136 2.15789,10.18518 24.54119,36.72163 32.71579,38.78611 0.7159,0.18082 1.9767,0.91244 2.8017,1.62583 0.825,0.71339 5.656398,3.759 10.736498,6.76803 5.0801,3.00903 8.9051,5.82652 8.5,6.26108 -0.4051,0.43457 -0.061,0.56749 0.7635,0.29538 0.825,-0.27211 4.8841,1.1943 9.0201,3.25868 40.7812,20.35456 114.7769,40.00056 192.2299,51.03743 4.8125,0.68576 8.75,1.56199 8.75,1.94716 0,0.38518 1.0487,0.49984 2.3304,0.25482 1.2818,-0.24502 10.3943,0.4821 20.25,1.61582 52.1849,6.0029 122.0117,7.43842 176.9196,3.63718 z m 360.9349,14.49459 c 1.4108,-0.53639 2.5651,-1.6869 2.5651,-2.5567 0,-1.43452 -0.2065,-1.43682 -2.2225,-0.0247 -5.0138,3.51172 -13.7775,0.89317 -13.7775,-4.11669 0,-2.16673 -0.3456,-2.46731 -2.25,-1.95695 -1.2375,0.33164 -2.7591,0.60913 -3.3813,0.61664 -0.6222,0.008 -2.3546,1.61746 -3.8497,3.57767 l -2.7184,3.56402 3.3497,-0.61391 c 1.9909,-0.36488 4.9723,-0.0138 7.3497,0.86552 4.6945,1.73629 11.3129,2.02217 14.9349,0.6451 z m -2.7658,-4.7991 c 0.8012,-0.50962 1.5055,-9.39687 2.2378,-28.23468 0.5878,-15.12003 1.3445,-33.00465 1.6817,-39.74359 l 0.6131,-12.25262 -3.3509,0.36421 -3.3508,0.36422 -0.6345,9.38841 c -2.2135,32.74871 -3.132,69.10624 -1.7677,69.96999 1.7104,1.08294 3.0301,1.12452 4.5713,0.14406 z M 42.240012,396.49086 c 1.03475,-0.65658 1.07476,-5.25223 0.2066,-23.73469 -0.59215,-12.60625 -1.39459,-29.86424 -1.78322,-38.35109 l -0.7066,-15.43063 -2.91432,-0.77683 c -1.60288,-0.42725 -3.17788,-0.6148 -3.5,-0.41676 -0.47243,0.29043 2.25382,78.43641 2.76668,79.30486 0.34916,0.59125 4.75856,0.14899 5.93086,-0.59486 z m 100.762478,-5.36341 c 0.3876,-1.76454 0.3109,-3.34185 -0.1705,-3.50512 -41.0342,-13.91815 -80.799178,-49.40807 -88.837398,-79.28661 -2.25779,-8.39235 -5.89411,-11.23919 -12.68361,-9.92989 -4.90403,0.9457 -10.05162,0.32169 -14.05453,-1.70376 -3.71701,-1.88078 -3.79966,-1.83222 -3.79966,2.23252 0,7.83202 6.47587,15.40113 13.17666,15.40113 h 3.48788 l -0.4561,-5.5 c -0.38113,-4.59588 -0.18917,-5.5 1.16773,-5.5 1.16602,0 1.62383,0.91814 1.62383,3.2566 0,5.14102 1.7271,9.85705 4.82625,13.17856 1.57281,1.68566 3.92418,4.86484 5.22525,7.06484 15.7928,26.70429 51.551098,54.75864 83.948498,65.86224 5.9641,2.04408 5.74,2.09785 6.5457,-1.57051 z m 643.9977,-0.29856 c 35.476,-14.03819 64.1147,-34.89113 79.646,-57.99317 3.3279,-4.95 7.2891,-10.41257 8.8027,-12.13904 1.5136,-1.72648 3.551,-5.67933 4.5276,-8.78413 2.0406,-6.48785 4.1113,-6.87568 3.7094,-0.69479 -0.2658,4.0888 -0.2191,4.15411 2.5,3.50035 8.8797,-2.1349 12.9495,-6.84857 13.2814,-15.38239 0.2384,-6.13086 0.091,-6.77909 -1.0816,-4.76611 -1.5797,2.7113 -11.2602,5.09484 -17.823,4.38839 -7.6385,-0.82224 -9.5048,0.74865 -12.1257,10.20648 -8.0393,29.01091 -40.9397,57.71714 -87.2472,76.12489 -6.6542,2.64513 -7.0235,3.04087 -6.136,6.57675 0.7619,3.03556 1.9049,2.93632 11.9464,-1.03723 z m 87.6026,-1.46943 c 1.4239,-0.0205 1.7306,-2.01517 2.2724,-14.77374 0.3444,-8.1125 0.8503,-17.675 1.1242,-21.25 0.5674,-7.40616 0.7186,-7.48637 -6.5969,3.5 -2.1973,3.3 -4.933,7.18543 -6.0793,8.6343 -1.7359,2.1942 -2.1476,4.36603 -2.4641,13 -0.209,5.70113 -0.6372,11.564 -0.9515,13.02858 l -0.5714,2.66289 5.8103,-2.38915 c 3.1957,-1.31403 6.551,-2.39983 7.4563,-2.41288 z m -814.651708,-9.36814 -1.02936,-12.3444 -5.38144,-7.9056 c -8.84923,-12.99995 -8.33073,-13.59147 -7.53343,8.5944 0.78681,21.89358 0.6027,20.98382 4.25896,21.0451 1.48004,0.0248 4.04098,0.66326 5.69098,1.41879 5.12603,2.34717 5.09769,2.42387 3.99429,-10.80829 z m 704.755708,9.80846 c 2.7129,-1.05111 2.3068,-5.46996 -0.5,-5.4402 -7.483,0.0793 -11.9484,2.41651 -10.7203,5.61101 0.8273,2.15221 5.4045,2.08253 11.2203,-0.17081 z m -600.75,-1.42311 c 0,-2.20327 -0.6241,-2.58597 -6,-3.67922 -8.0797,-1.64309 -10.2597,-0.0202 -5.431,4.04288 4.3976,3.70034 11.431,3.47659 11.431,-0.36366 z m 0.072,-14.71416 c -0.4066,-1.05953 -2.0325,-1.34995 -6.3098,-1.12705 l -5.7621,0.30026 -0.2936,4.5 -0.2936,4.5 5.7291,0.0564 c 4.0256,0.0396 5.8969,0.48564 6.2936,1.5 0.3105,0.79397 0.7039,-0.74924 0.8743,-3.42936 0.1704,-2.68012 0.063,-5.51524 -0.2379,-6.30027 z m 599.7356,7.73282 c 1.5008,-0.0495 1.7553,-0.78062 1.5,-4.30961 l -0.3075,-4.25 -4.9669,-0.31365 c -5.8478,-0.36927 -7.5331,1.16239 -7.5331,6.84624 v 3.65034 l 4.75,-0.78185 c 2.6125,-0.43002 5.5634,-0.80868 6.5575,-0.84147 z m 97.3756,-10.24711 c -0.3192,-0.79773 -0.5562,-0.56078 -0.6042,0.60417 -0.043,1.05416 0.193,1.64479 0.5253,1.3125 0.3323,-0.33229 0.3678,-1.1948 0.079,-1.91667 z m -99.615,-2.98301 c -1.239,-0.45835 -2.7439,-0.52987 -3.3441,-0.15893 -1.4293,0.88339 2.2891,2.23568 4.1865,1.52249 1.0053,-0.37791 0.7634,-0.76954 -0.8424,-1.36356 z m -601.0681,0.78401 c 0,-0.21258 -1.35,-0.58464 -3,-0.82681 -1.65,-0.24217 -3,-0.0682 -3,0.3865 0,0.45475 1.35,0.82681 3,0.82681 1.65,0 3,-0.17393 3,-0.3865 z M 41.358622,295.2201 c 4.91297,-1.71267 3.7562,-4.34857 -1.98461,-4.52227 -2.50657,-0.0758 -6.42044,-1.08835 -8.69748,-2.25 -5.15136,-2.62803 -5.21974,-2.62498 -5.21974,0.2329 0,5.40939 8.78267,9.02112 15.90183,6.53937 z m 851.598168,-1.12901 c 3.8641,-1.95597 5.2226,-3.75589 4.7399,-6.28051 -0.575,-3.00839 -0.5972,-3.00989 -4.2776,-0.28887 -2.0905,1.5456 -4.7885,2.29805 -9.2095,2.56853 -8.7309,0.53417 -9.4283,0.84153 -7.2845,3.21046 2.7578,3.04733 10.7906,3.44336 16.0317,0.79039 z M 35.674162,286.10067 c -1.68776,-0.81311 -2.58685,-0.79547 -3.45,0.0677 -0.88983,0.88983 -0.34714,1.15128 2.28263,1.09969 3.23999,-0.0636 3.31105,-0.13462 1.16737,-1.16737 z m 852.782628,0.23505 c -1.9629,-1.2685 -5.716,-1.2685 -6.5,0 -0.376,0.60835 1.0696,0.994 3.691,0.98469 3.1506,-0.0112 3.9057,-0.27592 2.809,-0.98469 z m -849.221328,-7.25 c 0.16735,-8.0904 -0.23565,-8.75 -5.34606,-8.75 -4.4284,0 -4.43276,0.004 -4.58483,3.75 -0.0837,2.0625 -0.19118,4.63922 -0.2388,5.72605 -0.0992,2.26364 3.58707,4.48703 7.47605,4.50921 2.43999,0.0139 2.59113,-0.27984 2.69364,-5.23526 z m 850.971328,4.61971 c 2.0613,-0.55239 2.25,-1.1894 2.25,-7.59333 0,-5.96345 -0.2324,-6.90119 -1.5818,-6.38337 -0.87,0.33385 -2.895,0.60699 -4.5,0.60699 h -2.9182 v 7 c 0,7.58542 0.4896,8.04744 6.75,6.36971 z M 38.456792,265.35477 c 0,-2.25148 -3.63767,-3.58621 -6.92783,-2.54196 -2.28521,0.7253 -2.78431,3.06889 -0.82217,3.86063 3.43026,1.38414 7.75,0.64913 7.75,-1.31867 z m 852.753198,0.82775 c 1.738,-1.73803 -0.2827,-4.82257 -2.8371,-4.33064 -5.5101,1.06114 -7.3328,2.73379 -5.2494,4.81717 1.0986,1.09868 6.8472,0.75282 8.0865,-0.48653 z"
       id="path1" />
  </g>
</svg>
